<?xml version="1.0" encoding="utf-8"?>
<!-- Generator: Adobe Illustrator 27.4.1, SVG Export Plug-In . SVG Version: 6.00 Build 0)  -->
<svg version="1.1" xmlns="http://www.w3.org/2000/svg" xmlns:xlink="http://www.w3.org/1999/xlink" x="0px" y="0px"
	 viewBox="0 0 1920 1080" enable-background="new 0 0 1920 1080" xml:space="preserve">
<g id="Inner_Mouth">
	<path id="Inner_Mouth_00000026144190986786516200000004458785477507473852_" fill="#801817" d="M314.92,542.03
		c15.9-8.39,301.99-32.13,670.05-32.13s663.88,26.88,677.18,31c-10.96,11.08-253.5,74.5-677.18,68.49
		C561.28,603.38,327.8,557.79,314.92,542.03z"/>
</g>
<g id="Tongue">
	<path id="Tongue_00000093138380903804615990000018304579039156272779_" fill="#F2898B" d="M470.86,525.15
		c65.62-56.94,174.89-141.7,392.43-125.02c42.35,3.25,76.43,3.92,121.02,5.27c44.58,1.36,103.74-8.56,158.3-7.15
		c260.43,6.73,305.36,98.04,356.17,149.11c-52.12,36.8-325.98,183.09-508.57,181.15C807.6,726.58,494.09,551.79,470.86,525.15z"/>
</g>
<g id="Lower_Lip">
	<path id="Lower_Teeth_00000071541407127935661980000012868908901835376803_" fill="#FFFFFF" d="M535.14,558.77
		c25.7,5.11,49.19,10.04,69.11,17.7c-6.3,15.57-11.37,27.47-13.62,36.09c11.37-14.32,14.1-21.44,26.72-31.66
		c3.21,0.12,65.01,11.73,65.01,11.73l-4.24,48.52l13.83-46.34l78.92,5.08l3.69,55.2l6.64-54.47l83.34,1.45l3.69,63.91l8.11-62.46
		l103.08,2.91l3.85,73.36l7.32-74.81l101.09,0.72l5.16,58.83l3.69-60.28l87.02-2.9l8.11,53.02v-55.2l71.54-7.99l13.28,53.74
		l3.69-55.2l81.87-2.18l5.9,33.05l4.43-33.77l58.27-3.63c0,0,5.91,15,11.6,34.6c-201.11,94.15-312.69,110.73-456.04,110.73
		c-143.35,0-296.77-32.14-475.14-131.73C525.7,579.26,535.14,558.77,535.14,558.77z"/>
	<path id="Lower_Lips_00000157291525403852397830000017937575052887704741_" fill="#D38181" d="M1663.79,541.14
		c-237.65,99.67-309.65,174.29-554.2,196.55c-65.45,3.66-82.81,4.91-124.62,4.91c-28.66,0-49.75-0.35-120.32-5.72
		c-239.83-32.68-310.37-73.82-556.36-196.13c63.06,1.85-52.48-0.74,329.38-6.24c116.91,5.49,207.32,4.02,347.74,4.02
		c157.53,0,236.51,7.4,345.16-7C1608.09,538.08,1628.37,534.11,1663.79,541.14z"/>
</g>
<g id="Upper_Lip">
	<path id="Upper_teeth_00000049206373098618723230000014838974897112861056_" fill="#FFFFFF" d="M495.81,524.38l88.15-22.36
		l17.7-38.74L600.3,505l105.93-32l13.77-32.92l4.92,32.93l120.95-5.23l7.86-49.39l3.93,49.39l132.75,4.84l9.5-55.2l8.67,55.2h124.42
		l10.82-55.2l5.42,51.09l116.49,1.15l17.76-17.76l4.7,22.86l94.7,31.54l7.67-23.61l17.74,32.05l85.79,21.11l-10.03-41.94
		c0,0-378.56-112.39-496.56-112.09c-107.26-3.74-553.64,125.43-491.7,101.87V524.38z"/>
	<path id="Upper_Lips_00000011735466272198891190000009474391790297489539_" fill="#E18788" d="M1663.79,541.14
		c-38.82-15.37-406.53-162.15-590.74-191.53c-48.81-9.9-81.9,24.67-92.77,28.5c-5.21-3.96-58.15-41.02-100.47-30.55
		c-173.67,41.89-512.03,167.14-571.52,193.18c38.04,6.3,244.11,18.52,336.02,3.52c115.5-14.73,307.6,9.41,337.1,9.27
		c29.5-0.14,278.47-20.07,360.95-15.71C1416.81,541.77,1655.73,541.14,1663.79,541.14z"/>
</g>
</svg>
