<?xml version="1.0" encoding="UTF-8"?>
<svg id="Layer_1" data-name="Layer 1" xmlns="http://www.w3.org/2000/svg" version="1.1" viewBox="0 0 1920 1080">
  <path id="Inner_Mouth" data-name="Inner Mouth" d="M288.64,523.4c15.9-8.39,304.2-137.02,672.26-137.02s609.96,132.02,672.75,132.97c-57.17,38.61-350.28,341.41-670.6,341.41-276.11,0-546.06-256.68-674.4-337.36Z" fill="#801817" stroke-width="0"/>
  <path id="Tongue" d="M471.75,661.7c71.18-51.16,150.71-87.56,368.88-86.9,41.87.13,77.79,4.43,122.4,4.43s76.83-7.2,131.38-5.79c260.43,6.73,318.24,55.06,381.49,98.89-52.12,36.8-306.39,208.15-488.98,206.21-182.6-1.94-491.95-190.2-515.18-216.84Z" fill="#f2898b" stroke-width="0"/>
  <path id="Lower_Teeth" data-name="Lower Teeth" d="M519.01,610.68c25.7,5.11,49.19,10.04,69.11,17.7-6.3,15.57-11.37,27.47-13.62,36.09,11.37-14.32,14.1-21.44,26.72-31.66,3.21.12,65.01,11.73,65.01,11.73l-4.24,48.52,13.83-46.34,78.92,5.08,3.69,55.2,6.64-54.47,83.34,1.45,3.69,63.91,8.11-62.46,103.08,2.91,3.85,73.36,7.32-74.81,101.09.72,5.16,58.83,3.69-60.28,87.02-2.9,8.11,53.02v-55.2l71.54-7.99,13.28,53.74,3.69-55.2,81.87-2.18,5.9,33.05,4.43-33.77,58.27-3.63s5.91,15,11.6,34.6c-201.11,94.15-319.22,139.7-462.57,139.7-143.35,0-290.24-61.11-468.62-160.71,10.64-17.52,20.09-38.01,20.09-38.01Z" fill="#fff" stroke-width="0"/>
  <path id="Upper_teeth" data-name="Upper teeth" d="M471.34,499.26l88.15-22.36,17.7-38.74-1.36,41.72,105.93-32,13.77-32.92,4.92,32.93,120.95-5.23,7.86-49.39,3.93,49.39,132.75,4.84,9.5-55.2,8.67,55.2h124.42l10.82-55.2,5.42,51.09,118.81-6.13,9.14-25.91,9.22,22.59,96.48,47.25v-37.47l25.42,45.91,85.79,21.11-10.03-41.94s-378.56-102.72-496.56-102.42c-107.26-3.74-468.26,85.62-491.7,92.2v40.67Z" fill="#fff" stroke-width="0"/>
  <path id="Upper_Lips" data-name="Upper Lips" d="M1639.49,518.97c-324.98-102.98-463.87-212-577.74-195.4-61.02,5.87-85.02,31.91-98.7,33.7-12.62-2.55-52.66-32.68-96.87-32.68-180.6,1.7-307.91,101.79-586.38,196.09,54.13,6.47,244.51-12,336.68-19.41,188.43-11.74,317.08-8.54,346.57-8.68,29.5-.14,244.06-3.23,346.87,6.64,258.51,24.82,274.47,22.98,329.57,19.74Z" fill="#e18788" stroke-width="0"/>
  <path id="Lower_Lips" data-name="Lower Lips" d="M1637.74,519.31c-183.83,196.43-296.68,330.72-543.61,389.45-58.38,12.09-90.43,14.55-132.23,14.55-28.66,0-79.9-7.74-115.77-17.62-252.26-60.77-329.24-180.26-566.18-384.38,39.68-9.12,55.32-5.66,335.37,145.4,111.1,45.96,230.59,87.83,347.72,87.83,165.62,0,227.96-27.82,344.97-77.87,204-101,229.31-157.36,329.74-157.36Z" fill="#e18788" stroke-width="0"/>
</svg>