<?xml version="1.0" encoding="UTF-8"?>
<svg id="Layer_12" data-name="Layer 12" xmlns="http://www.w3.org/2000/svg" viewBox="0 0 1355.5 1094.26">
  <defs>
    <style>
      .cls-1 {
        fill: #fff;
      }

      .cls-2 {
        fill: #e18788;
      }

      .cls-3 {
        fill: #801817;
      }

      .cls-4 {
        fill: #d38181;
      }

      .cls-5 {
        fill: #f2898b;
      }
    </style>
  </defs>
  <path id="Inner_Mouth" data-name="Inner Mouth" class="cls-3" d="m6.64,196.31c15.9-8.39,301.99-32.13,670.05-32.13s663.88,26.88,677.18,31c-10.96,11.08-253.5,74.5-677.18,68.49C253,257.67,19.51,212.07,6.64,196.31Z"/>
  <path id="Tongue" class="cls-5" d="m162.58,179.44c65.62-56.94,174.89-141.7,392.43-125.02,42.35,3.25,76.43,3.92,121.02,5.27,44.58,1.36,103.74-8.56,158.3-7.15,260.43,6.73,305.36,98.04,356.17,149.11-52.12,36.8-325.98,183.09-508.57,181.15-182.6-1.94-496.11-176.72-519.34-203.36Z"/>
  <path id="Lower_Teeth" data-name="Lower Teeth" class="cls-1" d="m226.86,213.06c25.7,5.11,49.19,10.04,69.11,17.7-6.3,15.57-11.37,27.47-13.62,36.09,11.37-14.32,14.1-21.44,26.72-31.66,3.21.12,65.01,11.73,65.01,11.73l-4.24,48.52,13.83-46.34,78.92,5.08,3.69,55.2,6.64-54.47,83.34,1.45,3.69,63.91,8.11-62.46,103.08,2.91,3.85,73.36,7.32-74.81,101.09.72,5.16,58.83,3.69-60.28,87.02-2.9,8.11,53.02v-55.2l71.54-7.99,13.28,53.74,3.69-55.2,81.87-2.18,5.9,33.05,4.43-33.77,58.27-3.63s5.91,15,11.6,34.6c-201.11,94.15-312.69,110.73-456.04,110.73s-296.77-32.14-475.14-131.73c10.64-17.52,20.09-38.01,20.09-38.01Z"/>
  <path id="Upper_teeth" data-name="Upper teeth" class="cls-1" d="m187.52,178.67l88.15-22.36,17.7-38.74-1.36,41.72,105.93-32,13.77-32.92,4.92,32.93,120.95-5.23,7.86-49.39,3.93,49.39,132.75,4.84,9.5-55.2,8.67,55.2h124.42l10.82-55.2,5.42,51.09,116.49,1.15,17.76-17.76,4.7,22.86,94.7,31.54,7.67-23.61,17.74,32.05,85.79,21.11-10.03-41.94s-378.56-112.39-496.56-112.09c-107.26-3.74-553.64,125.43-491.7,101.87v40.67Z"/>
  <path id="Lower_Lips" data-name="Lower Lips" class="cls-4" d="m1355.5,195.43c-237.65,99.67-309.65,174.29-554.2,196.55-65.45,3.66-82.81,4.91-124.62,4.91-28.66,0-49.75-.35-120.32-5.72C316.53,358.49,245.99,317.35,0,195.04c63.06,1.85-52.48-.74,329.38-6.24,116.91,5.49,207.32,4.02,347.74,4.02,157.53,0,236.51,7.4,345.16-7,277.53,6.55,297.8,2.58,333.22,9.61Z"/>
  <path id="Upper_Lips" data-name="Upper Lips" class="cls-2" d="m1355.5,195.43c-38.82-15.37-406.53-162.15-590.74-191.53-48.81-9.9-81.9,24.67-92.77,28.5-5.21-3.96-58.15-41.02-100.47-30.55C397.85,43.75,59.49,168.99,0,195.04c38.04,6.3,244.11,18.52,336.02,3.52,115.5-14.73,307.6,9.41,337.1,9.27,29.5-.14,278.47-20.07,360.95-15.71,74.46,3.94,313.39,3.31,321.44,3.31Z"/>
</svg>