<?xml version="1.0" encoding="utf-8"?>
<!-- Generator: Adobe Illustrator 27.4.1, SVG Export Plug-In . SVG Version: 6.00 Build 0)  -->
<svg version="1.1" xmlns="http://www.w3.org/2000/svg" xmlns:xlink="http://www.w3.org/1999/xlink" x="0px" y="0px"
	 viewBox="0 0 1920 1080" enable-background="new 0 0 1920 1080" xml:space="preserve">

<g id="Layer_2">
	<path id="Inner_Mouth_00000156587192307313681280000015228983420693021093_" fill="#801817" d="M287.73,500.63
		c15.9-8.39,300.2-178.47,668.25-178.47s665.68,173.22,678.98,177.35c-10.96,11.08-253.65,431.98-677.33,425.97
		S300.61,516.39,287.73,500.63z"/>
	<path id="Tongue_00000022556281366376375390000002430316906002529924_" fill="#F2898B" d="M443.67,650.76
		c65.62-56.94,174.89-141.7,392.43-125.02c42.35,3.25,76.43,3.92,121.02,5.27c44.58,1.36,103.74-8.56,158.3-7.15
		c260.43,6.73,305.36,98.04,356.17,149.11c-52.12,36.8-328.45,226.28-511.04,224.34C777.94,895.37,466.9,677.4,443.67,650.76z"/>
	<path id="Lower_Teeth_00000071550731983774730060000007389516449552390320_" fill="#FFFFFF" d="M509.27,730.7
		c25.7,5.11,49.19,10.04,69.11,17.7c-6.3,15.57-11.37,27.47-13.62,36.09c11.37-14.32,14.1-21.44,26.72-31.66
		c3.21,0.12,65.01,11.73,65.01,11.73l-4.24,48.52l13.83-46.34l78.92,5.08l3.69,55.2l6.64-54.47l83.34,1.45l3.69,63.91l8.11-62.46
		l103.08,2.91l3.85,73.36l7.32-74.81l101.09,0.72l5.16,58.83l3.69-60.28l87.02-2.9l8.11,53.02v-55.2l71.54-7.99l13.28,53.74
		l3.69-55.2l81.87-2.18l5.9,33.05l4.43-33.77l58.27-3.63c0,0,5.91,15,11.6,34.6c-201.11,94.15-319.22,139.7-462.57,139.7
		s-290.24-61.11-468.62-160.71C499.82,751.19,509.27,730.7,509.27,730.7z"/>
	<path id="Upper_teeth_00000028287642604715131630000016726545470527140785_" fill="#FFFFFF" d="M466.09,429.22l88.15-22.36
		l17.7-38.74l-1.36,41.72l105.93-32l13.77-32.92l4.92,32.93l120.95-5.23l7.86-49.39l3.93,49.39l132.75,4.84l9.5-55.2l8.67,55.2
		h124.42l10.82-55.2l5.42,51.09l118.81-6.13l9.14-25.91l9.22,22.59l96.48,47.25v-37.47l25.42,45.91l85.79,21.11l-10.03-41.94
		c0,0-378.56-142.26-496.56-141.96c-107.26-3.74-553.64,155.31-491.7,131.75V429.22z"/>
	<path id="Upper_Lips_00000134208409175260986270000010858568842528008875_" fill="#E18788" d="M1636.6,499.74
		c-38.82-15.37-392.69-296.05-582.14-280.73c-50.15,1.26-85.79,29.36-96.66,33.19c-5.21-3.96-52.37-35.23-96.59-35.23
		c-172.37-9.7-520.63,256.34-580.12,282.38c38.04,6.3,238.21-66.89,330.13-81.9c109.28-28.65,320.8-31.83,350.3-31.97
		s258.38,1.53,347.74,25.53C1381.28,430.35,1628.55,499.74,1636.6,499.74z"/>
	<path id="Lower_Lips_00000031896135629080027860000001341010433554108085_" fill="#E18788" d="M1636.6,499.74
		c-86.82,172.72-300.78,465.82-556.27,480.8c-65.45,3.66-82.81,3.91-124.62,3.91c-28.66,0-48.86-0.91-120.32-10.72
		c-239.83-32.68-389.62-220.84-554.3-474.38c63.06,1.85,0,61.79,330.13,237.19c107.36,38.33,207.32,85.02,347.74,85.02
		c157.53,0,244.09-38.3,344.94-79.66C1573.43,609.27,1601.18,492.72,1636.6,499.74z"/>
</g>
</svg>
