<?xml version="1.0" encoding="UTF-8"?>
<svg id="_3" data-name="3" xmlns="http://www.w3.org/2000/svg" version="1.1" viewBox="0 0 1920 1080">
  <path id="Inner_Mouth" data-name="Inner Mouth" d="M661.37,552.26c15.9-8.39-66.9-163.4,301.15-163.4s295.83,148.52,316.72,149.58c-10.96,11.08-133.79,223.57-315.08,223.57-152.67,0-289.92-193.99-302.79-209.75Z" fill="#801817" stroke-width="0"/>
  <path id="Tongue" d="M708.35,691.03c65.62-56.94,91.93-.74,129.7-.06,41.87.75,82.41,9.05,127,10.4,44.58,1.36,99.29-8.99,153.85-10.28,18.89-.45,67.4-32.92,79.66,15.38-41.89,42.94-50.92,108.15-233.51,106.21-182.6-1.94-233.47-95.02-256.7-121.66Z" fill="#f2898b" stroke-width="0"/>
  <path id="Lower_Teeth" data-name="Lower Teeth" d="M699.16,641.11c16.34,11.23,10.48,8.42,30.13,20.43-6.3,15.57-2.86,17.94-5.11,26.55,11.37-14.32,10.86-11.74,23.49-21.96,3.21.12,22.98,14.3,22.98,14.3l-9.19,33.7,17.36-27.57,23.49,6.64-2.04,49.53,14.3-48,35.85,11.22,3.69,63.91,8.11-62.46,103.08,2.91,3.85,73.36,7.32-74.81,101.09.72,5.16,58.83,2.48-62.61,27.06-20.26,26.72,60.77-10.89-66.89,27.91-22.98,28.94,54.81-16.36-56.47,18.4-13.99,25.53,39.49-13.96-44.26,13.28-16.34s20.94,9.7,41.87,21.96c-96,114.89-140.81,177.95-284.16,177.96-143.35,0-169.79-31.91-286.22-164.68l15.83-13.79Z" fill="#fff" stroke-width="0"/>
  <path id="Upper_teeth" data-name="Upper teeth" d="M720.6,490.98l51.57-29.62,3.23-33.19,24.34,19.91,26.55-16.34,3.28-35.22,13.06,28.03,43.57-1.4,7.86-49.39,5.71,48.67,76.94-5.49,7.69-50.95,8.67,55.2,79.85,5.94,23.49-29.84-10.72,33.41,42.38,19.4,22.98-22.47-7.66,25.53,29.11,15.32,23.49-19.4-.51,29.11,48,31.66,12.77-29.62s-173.21-141.24-291.21-140.94c-107.26-3.74-241.26,119.23-255.68,128.68l11.23,22.98Z" fill="#fff" stroke-width="0"/>
  <path id="Upper_Lips" data-name="Upper Lips" d="M1322.14,538.44c-99.4-128.48-217.19-243.88-286.3-247.28-50.72,4.43-59.91,21.87-70.79,25.7-5.21-3.96-28.41-26.55-72.62-26.55-50.98,0-186.47,105.36-282.64,248.4,180.26,28.87,141.45-26.28,220.43-71.93,37.96-30.6,95.66-34.01,134.83-34.01s61.42-2.89,131.38,36.22c100.85,82.25,86.3,89.91,225.7,69.45Z" fill="#e18788" stroke-width="0"/>
  <path id="Lower_Lips" data-name="Lower Lips" d="M1322.14,538.44c-98.42,167.17-132.7,201.31-230.13,272.55-51.4,26.21-85.15,32.74-126.96,32.74-28.66,0-66.4,1.99-122.38-31.03-173.13-114.38-177.72-181.28-232.87-273.98,82.55-3.81,155.74,18.66,232.85,109.3,45.11,42.81,61.14,50.78,122.4,49.79,105.84-1.71,93.09-36.77,172.31-100.92,54.74-60.95,105.46-44.95,184.78-58.43Z" fill="#d38281" stroke-width="0"/>
</svg>