<?xml version="1.0" encoding="UTF-8"?>
<svg id="_2" data-name="2" xmlns="http://www.w3.org/2000/svg" viewBox="0 0 1920 1080">
  <defs>
    <style>
      .cls-1 {
        fill: #f2898b;
      }

      .cls-1, .cls-2, .cls-3, .cls-4, .cls-5 {
        stroke-width: 0px;
      }

      .cls-2 {
        fill: #d58085;
      }

      .cls-3 {
        fill: #801817;
      }

      .cls-4 {
        fill: #fff;
      }

      .cls-5 {
        fill: #e18788;
      }
    </style>
  </defs>
  <path id="Inner_Mouth" data-name="Inner Mouth" class="cls-3" d="M295.07,541.17c15.9-8.39,300.2-178.47,668.25-178.47s658.08,176.28,678.98,177.35c-10.96,11.08-253.65,431.98-677.33,425.97s-657.02-409.08-669.89-424.84Z"/>
  <path id="Tongue" class="cls-1" d="M446.96,696.4c84.77-82.72,246.64-122.55,396.26-122.45,47.51.03,68.79,7.92,113.4,7.92s76.81-5.46,131.38-5.79c225.87-1.34,317.02,56.12,390.23,141.91-52.12,36.8-331.2,215.64-513.79,213.7-182.6-1.94-494.25-208.65-517.48-235.29Z"/>
  <path id="Lower_Teeth" data-name="Lower Teeth" class="cls-4" d="M521.82,788.07c25.7,5.11,49.19,10.04,69.11,17.7-6.3,15.57-11.37,27.47-13.62,36.09,11.37-14.32,14.1-21.44,26.72-31.66,3.21.12,65.01,11.73,65.01,11.73l-4.24,48.52,13.83-46.34,78.92,5.08,3.69,55.2,6.64-54.47,83.34,1.45,3.69,63.91,8.11-62.46,103.08,2.91,3.85,73.36,7.32-74.81,101.09.72,5.16,58.83,3.69-60.28,87.02-2.9,8.11,53.02v-55.2l71.54-7.99,13.28,53.74,3.69-55.2,81.87-2.18,5.9,33.05,4.43-33.77,58.27-3.63s1.41-.31,7.11,19.3c-201.11,94.15-314.72,155-458.07,155-143.35,0-279.93-67.66-458.31-167.26,10.64-17.52,9.77-31.46,9.77-31.46Z"/>
  <path id="Upper_teeth" data-name="Upper teeth" class="cls-4" d="M480.43,484.8l88.15-22.36,17.7-38.74-1.36,41.72,105.93-32,13.77-32.92,4.92,32.93,120.95-5.23,7.86-49.39,3.93,49.39,132.75,4.84,9.5-55.2,8.67,55.2h124.42l10.82-55.2,5.42,51.09,118.81-6.13,9.14-25.91,9.22,22.59,96.48,47.25v-37.47l25.42,45.91,85.79,21.11-10.03-41.94s-378.56-142.26-496.56-141.96c-107.26-3.74-553.64,155.31-491.7,131.75v40.67Z"/>
  <path id="Upper_Lips" data-name="Upper Lips" class="cls-5" d="M1642.3,540.04c-178.15-77-403.17-256.41-580.53-263.58-61.02,5.87-84.92,23.24-96.04,31.37-14.47-8.15-55.07-31.18-99.28-31.18-169.82-2.55-370.13,165.96-580.21,263.65,36.15,7.87,275.44-68.76,331.27-70.63,100.09-14.15,316.21-11.1,345.71-11.25s247.31-5.26,345.86,11.62c225.54,33.16,289.54,81.5,333.22,69.99Z"/>
  <path id="Lower_Lips" data-name="Lower Lips" class="cls-2" d="M1642.3,540.7c-98.42,167.17-309.95,441.16-545.35,496.48-58.38,12.09-90.43,16.51-132.23,16.51-28.66,0-35.09,1.7-115.77-17.36-252.26-60.77-398.03-242.48-562.71-496.02,39.68-9.12,51.85,74.28,331.9,225.34,103.66,62.85,212.77,111.1,353.19,111.1,157.53,0,240.68-59.49,339.49-111.1,204-101,260.68-205.24,331.48-224.95Z"/>
</svg>