<?xml version="1.0" encoding="UTF-8"?>
<svg id="_12" data-name="12" xmlns="http://www.w3.org/2000/svg" version="1.1" viewBox="0 0 1920 1080">
  <path id="Inner_Mouth" data-name="Inner Mouth" d="M312.48,522.91c113.82-21.51,281.84-158.48,649.89-158.48s571.35,153.03,641,162.73c-38.35,36.01-215.63,258.52-639.32,252.51-423.69-6.01-628.99-237.09-651.57-256.77Z" fill="#801817" stroke-width="0"/>
  <path id="Tongue" d="M491.45,669.38c65.62-56.94,130.17-93.58,348.34-92.92,41.87.13,77.29,6.95,121.88,8.3,44.58,1.36,104.42-9.58,158.97-8.17,211.83,5.48,255.06,46.67,318.3,90.5-52.12,36.8-291.76,164.32-474.35,162.38-182.6-1.94-449.9-133.45-473.14-160.08Z" fill="#f2898b" stroke-width="0"/>
  <path id="Lower_Teeth" data-name="Lower Teeth" d="M517.34,594.24c25.7,5.11,49.19,10.04,69.11,17.7-6.3,15.57-11.37,27.47-13.62,36.09,11.37-14.32,14.1-21.44,26.72-31.66,3.21.12,65.01,11.73,65.01,11.73l-4.24,48.52,13.83-46.34,78.92,5.08,3.69,55.2,6.64-54.47,83.34,1.45,3.69,63.91,8.11-62.46,103.08,2.91,3.85,73.36,7.32-74.81,101.09.72,5.16,58.83,3.69-60.28,87.02-2.9,8.11,53.02v-55.2l76.7-7.5,8.12,53.25,2.2-52.88,83.36-4.5,5.9,33.05,4.43-33.77,58.27-3.63s-25.78,9.91-20.08,29.51c-201.11,94.15-287.53,144.79-430.89,144.79-143.35,0-279.93-67.66-458.31-167.26,10.64-17.52,9.77-31.46,9.77-31.46Z" fill="#fff" stroke-width="0"/>
  <path id="Upper_teeth" data-name="Upper teeth" d="M469.14,502.19l88.15-22.36,17.7-38.74-1.36,41.72,105.93-32,13.77-32.92,4.92,32.93,120.95-5.23,7.86-49.39,3.93,49.39,132.75,4.84,9.5-55.2,8.67,55.2h124.42l10.82-55.2,5.42,51.09,118.66.92,9.28-32.96,6.04,34.32,97.54,23.22v-37.47l25.42,45.91,85.79,21.11-10.03-41.94s-376.18-122.7-494.18-122.4c-107.26-3.74-553.89,148.05-491.95,124.49v40.67Z" fill="#fff" stroke-width="0"/>
  <path id="Upper_Lips" data-name="Upper Lips" d="M1635.03,522.91c-198.81-76.94-482.55-248.51-578.3-240.34-41.28,2.72-89.15,40.47-97.17,42.35-5.21-3.96-53.04-40.65-96.87-40.65-124.85-9.87-327.57,126.47-579.32,238.81,39.04,11.24,194.55-3.06,332.43-24.51,182.3-36.77,315.52-27.43,345.02-27.57,29.5-.14,188.9-6.14,347.66,25.53,302.04,60.26,265.62,27.52,326.55,26.38Z" fill="#e18788" stroke-width="0"/>
  <path id="Lower_Lips" data-name="Lower Lips" d="M1635.03,522.91c-218.19,221.28-282.64,312.68-541.28,369.36-58.38,12.09-89.58,12.77-131.38,12.77-28.66,0-50.04-1.16-122.4-16.3-253.53-86.08-288.77-144.29-556.6-365.66,41.11,6.33,98.04-22.98,332.43,98.04,154.72,59.75,207.83,83.49,348.26,83.49,157.53,0,239.49-16.09,344.43-63.58,253.53-148.59,289.11-111.79,326.55-118.13Z" fill="#d38281" stroke-width="0"/>
</svg>