<?xml version="1.0" encoding="UTF-8"?>
<svg id="_13" data-name="13" xmlns="http://www.w3.org/2000/svg" version="1.1" viewBox="0 0 1920 1080">
  <path id="Inner_Mouth" data-name="Inner Mouth" d="M567.37,525.81c15.9-8.39,227.01-161.42,397.17-161.42,199.8,0,359.58,159.73,380.47,160.8-10.96,11.08-199.18,186.95-380.47,186.95-152.67,0-384.29-170.56-397.17-186.32Z" fill="#801817" stroke-width="0"/>
  <path id="Tongue" d="M698.45,605.61c71.49-51.88,101.11-73.53,136.85-93.62,35.92-20.18,79.69-35.66,124.28-34.31,44.58,1.36,87.31,9.46,130.7,37.71,41.51,27.02,84.09,65.1,120.51,98.38-41.89,42.94-159.36,159.32-255.66,159.32-97.23,0-233.45-140.85-256.68-167.49Z" fill="#f2898b" stroke-width="0"/>
  <path id="Lower_Teeth" data-name="Lower Teeth" d="M695.17,642.4c16.34,11.23,10.48,8.42,30.13,20.43-6.3,15.57-2.86,17.94-5.11,26.55,11.37-14.32,10.86-11.74,23.49-21.96,3.21.12,22.98,14.3,22.98,14.3l-9.19,33.7,17.36-27.57,23.49,6.64-2.04,49.53,14.3-48,35.85,11.22,3.69,63.91,8.11-62.46,103.43,20.7,3.5,55.57,7.67-57.02,100.74-17.07,5.16,58.83,2.48-62.61,27.06-20.26,26.72,60.77-10.89-66.89,27.91-22.98,28.94,54.81-16.36-56.47,18.4-13.99,25.53,39.49-13.96-44.26,13.28-16.34s20.94,9.7,41.87,21.96c-96,114.89-140.81,177.95-284.16,177.96-143.35,0-169.79-31.91-286.22-164.68l15.83-13.79Z" fill="#fff" stroke-width="0"/>
  <path id="Upper_teeth" data-name="Upper teeth" d="M717.83,450.42l51.57-29.62,3.23-33.19,24.34,19.91,26.55-16.34,3.28-35.22,13.06,28.03,43.57-1.4,7.86-49.39,5.71,48.67,76.94-5.49,7.69-50.95,8.67,55.2,79.85,5.94,23.49-29.84-10.72,33.41,42.38,19.4,22.98-22.47-7.66,25.53,29.11,15.32,23.49-19.4-.51,29.11,48,31.66,12.77-29.62s-173.21-141.24-291.21-140.94c-107.26-3.74-241.26,119.23-255.68,128.68l11.23,22.98Z" fill="#fff" stroke-width="0"/>
  <path id="Upper_Lips" data-name="Upper Lips" d="M1413.18,524.41c-101.11-157.79-278.81-265.02-356.94-270.04-49.88,1.86-69.28,20.24-96.96,28.92-27.46-8.41-52.36-28.33-96.57-28.33-78.47-2.38-249.7,120.85-359.49,271.49,256.85,9.7,132.94-21.62,332.77-106.04,53.11-22.81,84.43-14.21,123.6-14.21s73.17-3.57,131.38,21.7c109.34,52.46,142.3,123.69,322.21,96.51Z" fill="#e18788" stroke-width="0"/>
  <path id="Lower_Lips" data-name="Lower Lips" d="M1413.18,524.41c-112.85,166.98-156.77,253.28-322.21,319.64-58.77,18-89.58,18.15-131.38,18.15-28.66,0-58.85,2.67-122.4-14.55-147.57-57.7-216-148.59-333.96-321.19,221.11-16.85,159.32,42.38,333.96,139.91,65.02,24.85,61.13,18.89,122.4,18.89s91.89,7.32,131.38-12.77c171.06-109.75,151.15-168.51,322.21-148.08Z" fill="#d38281" stroke-width="0"/>
</svg>