<?xml version="1.0" encoding="UTF-8"?>
<svg id="_16" data-name="16" xmlns="http://www.w3.org/2000/svg" version="1.1" viewBox="0 0 1920 1080">
  <path id="Inner_Mouth" data-name="Inner Mouth" d="M647.11,536.89c15.9-8.39,156.09-122.49,326.25-122.49,199.8,0,289.73,124.51,310.62,125.57-10.96,11.08-129.33,222.17-310.62,222.17-152.67,0-313.37-209.49-326.25-225.25Z" fill="#801817" stroke-width="0"/>
  <path id="Tongue" d="M698.11,551c65.62-56.94,102.13-70.05,137.87-87.42,37.06-18,76.22-32.78,120.81-31.43,44.58,1.36,104.34,13,142.17,31.94,27.36,13.7,113.87,50.55,136.85,96-41.89,42.94-182.72,160.34-279.02,160.34-97.23,0-235.45-142.8-258.68-169.44Z" fill="#f2898b" stroke-width="0"/>
  <path id="Lower_Teeth" data-name="Lower Teeth" d="M689.26,537.03c3.2,2.17,18.16,8.94,21.11,10.72-2.53,6.42-2.88,8.79-5.13,17.4,6.02-2.94,9.88-13.82,15.19-18.01,3.21.12,9.09,6.9,9.09,6.9l-15.17,27.84,18.23-27.58,10.47,2.81-2.04,49.53,20.75-63.55,80.36,4.57,6.08,78.13,2.6-78.05,103.15,2.22,4.45,87.99,4.74-87.99h100.09l4.15,68.22,5.04-68.22,81.02-5.53,16,75.14-1.36-58.89,13.28-4.68,23.15,51.23-16.36-56.47,18.4-13.99,25.53,39.49-13.96-44.26,22.81-7.66s8.85,10.13,23.49,27.22c-96,114.89-153.07,180.02-296.42,180.02-143.35,0-173.62-46.55-290.05-179.32,6.72-6.04,11.32-15.23,11.32-15.23Z" fill="#fff" stroke-width="0"/>
  <path id="Upper_teeth" data-name="Upper teeth" d="M678.7,510.13l24.21-1.15,2.75-28.19,15.1,29.14,28.92,10.42,2.87-65.36,11.42,72,42.38,1.53,10.72-82.21,1.67,84.7,134.16,4.76,5.47-99.21,6.79,100.64,130.72-3.57,4.09-72,5.63,67.11,62.79-4.39,13.28-43.31-3.57,43.31,16.85-1.95,19.4-26.04-3.06,25.02,24.51,1.02,14.6-13.08s-184.57-150.5-310.31-150.18c-114.29-3.99-257.08,127.05-272.45,137.12l11.05,13.88Z" fill="#fff" stroke-width="0"/>
  <path id="Upper_Lips" data-name="Upper Lips" d="M1297.82,527.32c-135.83-108.26-174.98-219.23-266.98-215.57-31.4.77-60.09,16.17-70.36,19.15-7.68-2.21-55.38-18.13-73.81-18.38-71.06-1.43-76.94,44.94-266.72,213.2,146.38,31.4,206.26-25.41,218.13-32.18,23.49-17.87,72.85-34.3,122.4-34.72,37.93-.33,74.02,3.32,135.75,38.55,24.08,15.39,89.03,59.74,201.59,29.96Z" fill="#e18788" stroke-width="0"/>
  <path id="Lower_Lips" data-name="Lower Lips" d="M1297.32,527.32c-66.04,115.06-145.7,187.57-204.07,223.32-48.1,26.3-91.46,38.3-133.27,38.3-28.66,0-62.56-4.55-120.52-31.91-99.93-57.96-148.18-124.34-220.01-231.31,149.45-10.99,153.79,46.46,221.64,78.89,29.94,13.53,57.62,27.57,118.9,27.57s83.64-11.49,133.27-39.32c29.52-15.83,107.39-87.83,204.07-65.53Z" fill="#d38281" stroke-width="0"/>
</svg>