<?xml version="1.0" encoding="UTF-8"?>
<svg id="_14" data-name="14" xmlns="http://www.w3.org/2000/svg" version="1.1" viewBox="0 0 1920 1080">
  <path id="Inner_Mouth" data-name="Inner Mouth" d="M385.58,488.19c30.64-7.83,208.82-134.89,576.87-134.89s493.11,129.69,555.89,130.63c-57.17,38.61-235.57,311.01-555.89,311.01-276.11,0-448.53-226.07-576.87-306.76Z" fill="#801817" stroke-width="0"/>
  <path id="Tongue" d="M548.23,589.5c64.34-58.72,141.35-98.7,289.44-129.68,40.99-8.57,77.79-9.74,122.4-9.87,44.09-.13,93.76,8.09,135.47,13.96,151.83,21.35,257.95,103.06,321.19,146.89-52.12,36.8-275,182.2-457.59,180.26-182.6-1.94-387.68-174.93-410.91-201.56Z" fill="#f2898b" stroke-width="0"/>
  <path id="Lower_Teeth" data-name="Lower Teeth" d="M512.05,549.97c25.7,5.11,49.19,10.04,69.11,17.7-6.3,15.57-11.37,27.47-13.62,36.09,11.37-14.32,14.1-21.44,26.72-31.66,3.21.12,65.01,11.73,65.01,11.73l-4.24,48.52,13.83-46.34,78.92,5.08,3.69,55.2,6.64-54.47,83.34,1.45,3.69,63.91,8.11-62.46,103.08,2.91,3.85,73.36,7.32-74.81,101.09.72,5.16,58.83,3.69-60.28,87.02-2.9,8.11,53.02v-55.2l77.84-6.89,6.98,52.64,1.7-53.66,83.86-3.72,5.9,33.05,4.43-33.77,58.27-3.63s5.91,15,11.6,34.6c-201.11,94.15-319.22,139.7-462.57,139.7-143.35,0-290.24-61.11-468.62-160.71,10.64-17.52,20.09-38.01,20.09-38.01Z" fill="#fff" stroke-width="0"/>
  <path id="Upper_teeth" data-name="Upper teeth" d="M462.27,503.5l88.15-22.36,17.7-38.74-1.36,41.72,105.93-32,13.77-32.92,5.15,49.21,118.98,9.19,9.6-80.09,1.63,81.11,129.97,2.62,14.58-84.71-1.82,84.71,133.02-1.09,12.71-83.62-1.99,81.57,118.75-7.11,18.61-45.49,17.87,24,86.59,20.44,1.75-35.25,23.49,37.28,79.35,9.26-4.79-27.64s-377.94-122.83-495.94-122.53c-107.26-3.74-553.64,155.31-491.7,131.75v40.67Z" fill="#fff" stroke-width="0"/>
  <path id="Upper_Lips" data-name="Upper Lips" d="M1638.35,486.71c-279.83-41.87-384-229.79-581.62-225.36-51.54,6.64-80.3,32.47-97.58,36.17-15.4-3.96-43.13-35.06-98.5-33.79-189.96-2.46-254.81,152-580.6,224.77,54.13,6.47,178.72,45.19,332.43-.77,148.6-55.91,202.98-35.41,347.6-35.41s241.68-9.87,347.99,32c127.9,31.32,154.46,21.11,330.29,2.39Z" fill="#e18788" stroke-width="0"/>
  <path id="Lower_Lips" data-name="Lower Lips" d="M1638.35,486.71c-183.63,146.3-249.19,336.51-546.89,384-60.77,8.94-88.41,13.79-130.21,13.79-28.66,0-72.89-4.78-123.57-12.77-273.87-50.04-303.32-168.25-557.62-383.23,113.87-17.87,219.57,40.6,333.45,111.6,76.6,41.84,291.06,84.77,346.57,84.77,75.72,0,201.51-9.23,346.11-81.4,80.09-48.68,139.66-121.36,332.17-116.77Z" fill="#d38281" stroke-width="0"/>
</svg>