<?xml version="1.0" encoding="UTF-8"?>
<svg id="_8" data-name="8" xmlns="http://www.w3.org/2000/svg" version="1.1" viewBox="0 0 1920 1080">
  <path id="Inner_Mouth" data-name="Inner Mouth" d="M444,520.48c30.64-7.83,146.52-139.72,514.57-139.72s460.77,139.42,523.55,140.37c-57.17,38.61-201.76,301.28-522.08,301.28-276.11,0-387.71-221.24-516.05-301.92Z" fill="#801817" stroke-width="0"/>
  <path id="Tongue" d="M612,654.4c64.34-58.72,132.77-88.68,225.36-101.96,41.45-5.94,76.6-6.67,121.22-6.8,44.09-.13,87.47,2.05,129.34,6.63,152.49,16.69,156.33,62.89,219.57,106.72-52.12,36.8-166.32,135.48-348.91,133.54-182.6-1.94-323.34-111.5-346.57-138.14Z" fill="#f2898b" stroke-width="0"/>
  <path id="Lower_Teeth" data-name="Lower Teeth" d="M606.89,635.5c25.7,5.11,30.64,12.26,50.55,19.91-6.3,15.57-8.47,30.7-10.72,39.32,11.37-14.32,22.61-27.57,35.23-37.79,3.21.12,47.49,17.36,47.49,17.36l-19.4,47.49,25.53-46.47,41.87,14.81-7.15,51.06,22.98-50.55,49.02,5.09,3.69,63.91,8.11-62.46,103.08,22.01,3.85,73.36,7.32-74.81,99.82-1.16,5.16,58.83,3.69-60.28,88.29-20.12,8.11,53.02v-55.2l49.82-15.98,17.87,45.96-7.15-51.06,33.7-19.31,18.89,34.63-13.79-37.79,34.72-16.85s26.98,24.82,32.68,44.43c-201.11,94.15-235.39,154.46-378.74,154.47-143.35,0-207.31-62.64-385.68-162.24,10.64-17.52,31.15-33.59,31.15-33.59Z" fill="#fff" stroke-width="0"/>
  <path id="Upper_teeth" data-name="Upper teeth" d="M551.23,493.04l71.63-25.21,9.05-43.72,11.23,38.81,53.11-14.3,13.79-52.47,9.19,45.83,95.33-18.17,7.82-69.15,10.21,63.83,120.61-15.47,5.37-61.13,6.37,61.79,127.05,13.28,12.45-58.61-3.76,63.72,57.19,12.26,23.36-51.06-2.55,50.04,40.77,9.86,10.42-49.69,6.13,49.69,70.41,12.26,17.42-32.33s-247.26-103.71-365.26-103.41c-107.26-3.74-387.47,117.24-410.91,123.83l3.57,49.53Z" fill="#fff" stroke-width="0"/>
  <path id="Upper_Lips" data-name="Upper Lips" d="M1514.19,519.1c-137.94-85.13-362.28-264.19-460.01-253.3-51.54,6.64-80.14,32.68-95.6,33.19-16.7-1.02-41.5-29.87-96.87-28.6-149.62,2.55-332.94,177.19-454.47,251.74,54.13,6.47,165.96,1.02,208.34-10.72,183.83-69.96,313.51-78.49,343-78.13,125.25,1.53,237.08,43.91,346.1,76.08,142.21,30.29,154.41,12.96,209.51,9.73Z" fill="#e18788" stroke-width="0"/>
  <path id="Lower_Lips" data-name="Lower Lips" d="M1512.77,519.27c-123.42,135.28-229.11,272.15-422.81,319.98-60.77,8.94-92.08,11.92-133.88,11.92-28.66,0-83.39-2.65-119.9-10.82-224.17-78.2-251.74-133.01-430.36-318.03,113.87-17.87,235.56,80.51,336,121.02,31.81,12.08,99.64,44.95,216.77,45.27,121.85.34,171.21-10.89,279.83-70.49,89.62-45.25,116.68-118.27,274.36-98.84Z" fill="#d38281" stroke-width="0"/>
</svg>