<?xml version="1.0" encoding="UTF-8"?>
<svg id="_10" data-name="10" xmlns="http://www.w3.org/2000/svg" version="1.1" viewBox="0 0 1920 1080">
  <path id="Inner_Mouth" data-name="Inner Mouth" d="M640.05,521.27c15.9-8.39,153.94-139.15,324.1-139.15,199.8,0,296.81,135.84,317.7,136.9-10.96,11.08-136.41,210.84-317.7,210.84-152.67,0-311.23-192.84-324.1-208.6Z" fill="#801817" stroke-width="0"/>
  <path id="Tongue" d="M709.75,646.89c65.62-56.94,88.59,2.05,119.49,23.78,33.7,23.71,79.97,23.92,124.56,25.27,44.58,1.36,99.1-8.5,146.59-29.14,17.33-7.53,75.03-56.73,87.28-8.43-41.89,42.94-137.21,145.06-233.51,145.06-97.23,0-221.18-129.91-244.41-156.54Z" fill="#f2898b" stroke-width="0"/>
  <path id="Lower_Teeth" data-name="Lower Teeth" d="M694.79,601.93c16.34,11.23,10.48,8.42,30.13,20.43-6.3,15.57-2.86,17.94-5.11,26.55,11.37-14.32,10.86-11.74,23.49-21.96,3.21.12,22.98,14.3,22.98,14.3l-9.19,33.7,17.36-27.57,23.49,6.64-2.04,49.53,14.3-48,35.85,11.22,3.69,63.91,8.11-62.46,103.43,20.7,3.5,55.57,7.67-57.02,100.74-17.07,5.16,58.83,2.48-62.61,27.06-20.26,26.72,60.77-10.89-66.89,27.91-22.98,28.94,54.81-16.36-56.47,18.4-13.99,25.53,39.49-13.96-44.26,13.28-16.34s20.94,9.7,41.87,21.96c-96,114.89-140.81,177.95-284.16,177.96-143.35,0-169.79-31.91-286.22-164.68l15.83-13.79Z" fill="#fff" stroke-width="0"/>
  <path id="Upper_teeth" data-name="Upper teeth" d="M717.45,468.17l51.57-29.62,3.23-33.19,24.34,19.91,26.55-16.34,3.28-35.22,13.06,28.03,43.57-1.4,7.86-49.39,5.71,48.67,76.94-5.49,7.69-50.95,8.67,55.2,79.85,5.94,23.49-29.84-10.72,33.41,42.38,19.4,22.98-22.47-7.66,25.53,29.11,15.32,23.49-19.4-.51,29.11,48,31.66,12.77-29.62s-173.21-141.24-291.21-140.94c-107.26-3.74-241.26,119.23-255.68,128.68l11.23,22.98Z" fill="#fff" stroke-width="0"/>
  <path id="Upper_Lips" data-name="Upper Lips" d="M1317.92,519.89c-96.51-128.06-220.91-244.37-290.02-247.77-50.72,4.43-63.25,24.97-69.01,28.92-5.21-3.96-28-30.23-72.21-30.23-43.23-2.99-180.51,102.13-286.21,251.23,199.66,14.3,146.55-59.23,237.62-86.98,52.09-23.15,85.11-20.43,124.28-20.43s64.66-2.04,132.74,34.72c95.32,56.51,42.89,97.71,222.81,70.53Z" fill="#e18788" stroke-width="0"/>
  <path id="Lower_Lips" data-name="Lower Lips" d="M1317.92,519.89c-111.15,157.62-126.74,192.87-224.17,264.11-51.4,26.21-89.58,38.47-131.38,38.47-28.66,0-64.45-5.32-122.4-32.68-103.66-51.79-171.66-178.38-239.49-267.74,180.43-5.96,152.77,43.06,241.11,113.77,48.07,33.19,59.51,37.89,120.78,37.89s74.53-6.96,131.38-41.87c60-60.76,91.66-121.53,224.17-111.94Z" fill="#d38281" stroke-width="0"/>
</svg>