<?xml version="1.0" encoding="UTF-8"?>
<svg id="_3" data-name="3" xmlns="http://www.w3.org/2000/svg" viewBox="0 0 1920 1080">
  <defs>
    <style>
      .cls-1 {
        fill: #f2898b;
      }

      .cls-1, .cls-2, .cls-3, .cls-4, .cls-5 {
        stroke-width: 0px;
      }

      .cls-2 {
        fill: #801817;
      }

      .cls-3 {
        fill: #fff;
      }

      .cls-4 {
        fill: #d38281;
      }

      .cls-5 {
        fill: #e18788;
      }
    </style>
  </defs>
  <path id="Inner_Mouth" data-name="Inner Mouth" class="cls-2" d="M661.37,552.26c15.9-8.39-66.9-163.4,301.15-163.4s295.83,148.52,316.72,149.58c-10.96,11.08-133.79,223.57-315.08,223.57-152.67,0-289.92-193.99-302.79-209.75Z"/>
  <path id="Tongue" class="cls-1" d="M681.34,623.64c41.36-41.36,119.49,9.19,159.28,42.13,36.6,30.29,74.77,53.85,119.38,53.85s93.08-15.5,131.13-54.62c28.71-29.52,112.74-85.8,152.57-45.34-47.49,40.73-104.78,183.62-287.37,181.68-182.6-1.94-251.74-151.06-274.98-177.7Z"/>
  <path id="Lower_Teeth" data-name="Lower Teeth" class="cls-3" d="M699.16,641.11c16.34,11.23,10.48,8.42,30.13,20.43-6.3,15.57-2.86,17.94-5.11,26.55,11.37-14.32,10.86-11.74,23.49-21.96,3.21.12,22.98,14.3,22.98,14.3l-9.19,33.7,17.36-27.57,23.49,6.64-2.04,49.53,14.3-48,35.85,11.22,3.69,63.91,8.11-62.46,103.08,2.91,3.85,73.36,7.32-74.81,101.09.72,5.16,58.83,2.48-62.61,27.06-20.26,26.72,60.77-10.89-66.89,27.91-22.98,28.94,54.81-16.36-56.47,18.4-13.99,25.53,39.49-13.96-44.26,13.28-16.34s20.94,9.7,41.87,21.96c-96,114.89-140.81,177.95-284.16,177.96-143.35,0-169.79-31.91-286.22-164.68l15.83-13.79Z"/>
  <path id="Upper_teeth" data-name="Upper teeth" class="cls-3" d="M720.6,490.98l51.57-29.62,3.23-33.19,24.34,19.91,26.55-16.34,3.28-35.22,13.06,28.03,43.57-1.4,7.86-49.39,5.71,48.67,76.94-5.49,7.69-50.95,8.67,55.2,79.85,5.94,23.49-29.84-10.72,33.41,42.38,19.4,22.98-22.47-7.66,25.53,29.11,15.32,23.49-19.4-.51,29.11,48,31.66,12.77-29.62s-173.21-141.24-291.21-140.94c-107.26-3.74-241.26,119.23-255.68,128.68l11.23,22.98Z"/>
  <path id="Upper_Lips" data-name="Upper Lips" class="cls-5" d="M1322.14,538.44c-71.94-83.57-185.82-235.23-286.3-247.28-31.77-.85-59.42,17.9-70.54,26.02-14.47-8.15-26.81-27.07-71.02-27.07-111.83,15.66-255.32,202.04-284.48,248.6,132.31,33.1,159.45-17.42,187.98-47.59,50.03-55.14,135.24-58.2,164.74-58.34s101.8-.37,166.99,63.76c46.65,53.82,114.19,63.52,192.63,41.9Z"/>
  <path id="Lower_Lips" data-name="Lower Lips" class="cls-4" d="M1322.14,538.44c-98.42,167.17-132.7,201.31-230.13,272.55-51.4,26.21-85.15,32.74-126.96,32.74-28.66,0-66.4,1.99-122.38-31.03-173.13-114.38-177.72-181.28-232.87-273.98,82.55-3.81,155.74,18.66,232.85,109.3,45.11,42.81,61.14,50.78,122.4,49.79,105.84-1.71,93.09-36.77,172.31-100.92,54.74-60.95,105.46-44.95,184.78-58.43Z"/>
</svg>