<?xml version="1.0" encoding="UTF-8"?>
<svg id="_6" data-name="6" xmlns="http://www.w3.org/2000/svg" version="1.1" viewBox="0 0 1920 1080">
  <path id="Inner_Mouth" data-name="Inner Mouth" d="M299.3,518.79c30.64-7.83,291.77-99.35,659.82-99.35,276.73,0,596.68,94.34,659.47,95.28-57.17,38.61-336.78,277.53-657.1,277.53-276.11,0-533.85-192.79-662.19-273.47Z" fill="#801817" stroke-width="0"/>
  <path id="Tongue" d="M576.45,633.53c71.18-51.16,190.98-50.38,252.17-51.91,41.86-1.05,88.26,5.62,132.87,5.62s76.81-7.15,131.38-7.15c168,0,229.28,35.23,300.77,68.94-52.12,36.8-249.56,145.18-432.15,143.24-182.6-1.94-361.81-132.09-385.04-158.73Z" fill="#f2898b" stroke-width="0"/>
  <path id="Lower_Teeth" data-name="Lower Teeth" d="M513.62,563.07c25.7,5.11,49.19,10.04,69.11,17.7-6.3,15.57-11.37,27.47-13.62,36.09,11.37-14.32,14.1-21.44,26.72-31.66,3.21.12,65.01,11.73,65.01,11.73l-4.24,48.52,13.83-46.34,78.92,5.08,3.69,55.2,6.64-54.47,83.34,1.45,3.69,63.91,8.11-62.46,103.08,2.91,3.85,73.36,7.32-74.81,101.09.72,5.16,58.83,3.69-60.28,87.02-2.9,8.11,53.02v-55.2l71.54-7.99,13.28,53.74,3.69-55.2,81.87-2.18,5.9,33.05,4.43-33.77,58.27-3.63s5.91,15,11.6,34.6c-201.11,94.15-319.22,139.7-462.57,139.7-143.35,0-290.24-61.11-468.62-160.71,10.64-17.52,20.09-38.01,20.09-38.01Z" fill="#fff" stroke-width="0"/>
  <path id="Upper_teeth" data-name="Upper teeth" d="M475.34,513.38h88.17l11.91-36.11v48.34s104.1,15.34,104.1,15.34l14.25-78.56.56,80.09,120.51,10.94,12.66-112.72.1,112.72,129.19,4.74,16.89-118.43-5.14,119.09h131.74l7.15-94.98,3.57,93.11,121.02-8.39,13.79-56.63-2.54,54.22,103.15-9.7,9.69-25.11,13.87,4.4,79.32-8.51,9.87-20.97s-379.9-72.75-497.9-72.45c-107.26-3.74-462.49,52.31-485.93,58.9v40.67Z" fill="#fff" stroke-width="0"/>
  <path id="Upper_Lips" data-name="Upper Lips" d="M1635.94,513.7c-259.66-64.9-431.75-189.45-577.79-178.72-29.62.51-83.2,34.66-96.88,36.45-12.62-2.55-64.48-36.48-96.87-36.45-113.14-2.55-280.63,81.7-582.08,181.45,54.13,6.47,198.13,9.91,332.38,3.91,122.09-2.89,317.3,2.19,346.79,2.04,29.5-.14,240.13-4.09,346.87-1.79,165.45,3.57,272.47-3.66,327.58-6.89Z" fill="#e18788" stroke-width="0"/>
  <path id="Lower_Lips" data-name="Lower Lips" d="M1635.94,513.7c-147.83,122.89-283.66,267.57-543.83,317.87-60.77,8.94-88.81,8.94-130.62,8.94-28.66,0-86.66-3.06-123.17-11.23-163.15-24.26-360.77-152.17-556-312.85,90.55-3.04,169.19,12.09,332.6,89.43,114.89,43.75,229.45,58.23,346.57,58.23,165.62,0,224.83-11.83,346.11-51.66,152.43-46.47,156-103.83,328.34-98.72Z" fill="#d38281" stroke-width="0"/>
</svg>