<?xml version="1.0" encoding="UTF-8"?>
<svg id="_15" data-name="15" xmlns="http://www.w3.org/2000/svg" version="1.1" viewBox="0 0 1920 1080">
  <path id="Inner_Mouth" data-name="Inner Mouth" d="M297.53,492.37c130.98-18.13,292.47-109.75,660.52-109.75s609.22,114.05,630.11,115.11c-10.96,11.08-197.2,225.84-620.89,219.83-423.69-6.01-591.88-185.62-669.75-225.19Z" fill="#801817" stroke-width="0"/>
  <path id="Tongue" d="M493.16,580.54c62.81-72,146.57-102.38,364.74-101.72,41.87.13,77.29,6.95,121.88,8.3,44.58,1.36,104.42-9.58,158.97-8.17,260.43,6.73,227.68,69,290.92,112.83-52.12,36.8-287.86,112.24-470.45,110.3-182.6-1.94-442.83-94.89-466.06-121.53Z" fill="#f2898b" stroke-width="0"/>
  <path id="Lower_Teeth" data-name="Lower Teeth" d="M515.91,523.01c25.7,5.11,37.28,9,57.19,16.66-1.02,16.36,1.19,21.7-1.07,30.32,4.64-13.76,3.79-13.27,10.17-27.61,3.21.12,81.56,7.68,81.56,7.68l6.36,49.55,3.23-47.37,78.92,5.08,3.69,55.2,6.64-54.47,83.34,1.45,3.69,63.91,8.11-62.46,103.08,2.91,3.85,73.36,7.32-74.81,101.09.72,5.16,58.83,3.69-60.28,87.02-2.9,8.11,53.02v-55.2l71.54-7.99,13.28,53.74,3.69-55.2,81.87-2.18,5.9,33.05,4.43-33.77,73.37-21.75s-40.88,28.03-35.18,47.63c-201.11,94.15-287.53,144.79-430.89,144.79-143.35,0-279.93-67.66-458.31-167.26,8.16-17.39,9.14-24.65,9.14-24.65Z" fill="#fff" stroke-width="0"/>
  <path id="Upper_teeth" data-name="Upper teeth" d="M500.25,501.05l55.15,15.83,12.77-33.19.52,37.56,109.05,19.89,8.66-40.97,3.81,39.5,121.91,8.84,7.86-49.39,3.93,49.39,132.75,4.84,4.76-54.85,6.93,51.65,130.9,3.2,1.01-53.83,7.64,52.68,119.41-6.09,6.23-45.56,5.11,43.36,112.85-18.89-1.02-46.2,10.21,42.65,97.53-29.6-14.41-48.18s-379.75-3.65-497.75-3.35c-107.26-3.74-409.03,34.68-441.2,36.72l-4.6,24Z" fill="#fff" stroke-width="0"/>
  <path id="Upper_Lips" data-name="Upper Lips" d="M1637.03,486.76c-293.71-60.26-369.29-160.85-578.14-184.34-64,1.36-88.4,20.46-98.31,24.27-8.61-2.67-52.66-24.78-96.87-24.78-117.33-.26-354.27,142.98-582.74,184.85,39.04,11.24,242.4,8.96,334.57,1.55,188.43-11.74,315.54-9.81,345.04-9.96,29.5-.14,246.06-3.34,346.87,12.17,256.68,39.49,275.74,8.83,329.57-3.76Z" fill="#e18788" stroke-width="0"/>
  <path id="Lower_Lips" data-name="Lower Lips" d="M1633.44,487.64c-218.81,189.59-306.72,267.8-542.13,323.12-58.38,12.09-90.34,8.68-132.15,8.68-28.66,0-73.04-2.06-122.4-8.53-189.79-33.94-430.47-191.94-555.8-324.15,200.22,5.62,180.99,17.87,331.63,78.95,129.7,50.24,202.21,82.41,346.57,82.41,157.53,0,235.04-18.89,340.74-66.89,139.4-68.43,196.09-94.47,333.53-93.59Z" fill="#d5817f" stroke-width="0"/>
</svg>