<?xml version="1.0" encoding="UTF-8"?>
<svg id="_2" data-name="2" xmlns="http://www.w3.org/2000/svg" version="1.1" viewBox="0 0 1920 1080">
  <path id="Inner_Mouth" data-name="Inner Mouth" d="M295.07,541.17c15.9-8.39,300.2-178.47,668.25-178.47s658.08,176.28,678.98,177.35c-10.96,11.08-253.65,431.98-677.33,425.97s-657.02-409.08-669.89-424.84Z" fill="#801817" stroke-width="0"/>
  <path id="Tongue" d="M450.51,692.3c65.62-56.94,181.4-118.99,399.57-118.34,41.87.13,77.29,6.95,121.88,8.3,44.58,1.36,104.42-9.58,158.97-8.17,260.43,6.73,288.84,109.11,352.09,152.94-52.12,36.8-325.55,227.81-508.14,225.87-182.6-1.94-501.14-233.96-524.37-260.59Z" fill="#f2898b" stroke-width="0"/>
  <path id="Lower_Teeth" data-name="Lower Teeth" d="M521.82,788.07c25.7,5.11,49.19,10.04,69.11,17.7-6.3,15.57-11.37,27.47-13.62,36.09,11.37-14.32,14.1-21.44,26.72-31.66,3.21.12,65.01,11.73,65.01,11.73l-4.24,48.52,13.83-46.34,78.92,5.08,3.69,55.2,6.64-54.47,83.34,1.45,3.69,63.91,8.11-62.46,103.08,2.91,3.85,73.36,7.32-74.81,101.09.72,5.16,58.83,3.69-60.28,87.02-2.9,8.11,53.02v-55.2l71.54-7.99,13.28,53.74,3.69-55.2,81.87-2.18,5.9,33.05,4.43-33.77,58.27-3.63s1.41-.31,7.11,19.3c-201.11,94.15-314.72,155-458.07,155-143.35,0-279.93-67.66-458.31-167.26,10.64-17.52,9.77-31.46,9.77-31.46Z" fill="#fff" stroke-width="0"/>
  <path id="Upper_teeth" data-name="Upper teeth" d="M480.43,484.8l88.15-22.36,17.7-38.74-1.36,41.72,105.93-32,13.77-32.92,4.92,32.93,120.95-5.23,7.86-49.39,3.93,49.39,132.75,4.84,9.5-55.2,8.67,55.2h124.42l10.82-55.2,5.42,51.09,118.81-6.13,9.14-25.91,9.22,22.59,96.48,47.25v-37.47l25.42,45.91,85.79,21.11-10.03-41.94s-378.56-142.26-496.56-141.96c-107.26-3.74-553.64,155.31-491.7,131.75v40.67Z" fill="#fff" stroke-width="0"/>
  <path id="Upper_Lips" data-name="Upper Lips" d="M1642.3,540.04c-212.13-92.09-363.62-242.38-578.42-262.89-64,1.36-87.15,25.79-98.02,29.62-5.21-3.96-52.66-30.3-96.87-30.3-180.6,1.7-348.77,153.62-582.74,263.84,39.04,11.24,242.4-64.52,334.57-71.93,188.43-11.74,315.54-9.81,345.04-9.96,29.5-.14,246.06-3.34,346.87,12.17,256.68,39.49,275.74,82.04,329.57,69.45Z" fill="#e18788" stroke-width="0"/>
  <path id="Lower_Lips" data-name="Lower Lips" d="M1642.3,540.7c-98.42,167.17-309.95,441.16-545.35,496.48-58.38,12.09-90.43,16.51-132.23,16.51-28.66,0-35.09,1.7-115.77-17.36-252.26-60.77-398.03-242.48-562.71-496.02,39.68-9.12,51.85,74.28,331.9,225.34,103.66,62.85,212.77,111.1,353.19,111.1,157.53,0,240.68-59.49,339.49-111.1,204-101,260.68-205.24,331.48-224.95Z" fill="#d58085" stroke-width="0"/>
</svg>