<?xml version="1.0" encoding="UTF-8"?>
<svg id="_7" data-name="7" xmlns="http://www.w3.org/2000/svg" version="1.1" viewBox="0 0 1920 1080">
  <path id="Inner_Mouth" data-name="Inner Mouth" d="M668.31,515.37c15.9-8.39,117.9-109.02,288.06-109.02,199.8,0,270.05,119.96,290.95,121.02-10.96,11.08-108.01,172.68-289.3,172.68-152.67,0-276.83-168.92-289.71-184.68Z" fill="#801817" stroke-width="0"/>
  <path id="Tongue" d="M702.83,621.03c65.62-56.94,91.93-.74,129.7-.06,41.87.75,82.05,12.88,126.64,14.23,44.58,1.36,99.66-12.82,154.21-14.11,18.89-.45,67.4-32.92,79.66,15.38-41.89,42.94-137.21,106.21-233.51,106.21-97.23,0-233.47-95.02-256.7-121.66Z" fill="#f2898b" stroke-width="0"/>
  <path id="Lower_Teeth" data-name="Lower Teeth" d="M694.8,571.35c16.34,11.23,10.48,8.42,30.13,20.43-6.3,15.57-2.86,17.94-5.11,26.55,11.37-14.32,10.86-11.74,23.49-21.96,3.21.12,22.98,14.3,22.98,14.3l-9.19,33.7,17.36-27.57,23.49,6.64-2.04,49.53,14.3-48,35.85,11.22,3.69,63.91,8.11-62.46,103.08,2.91,3.85,73.36,7.32-74.81,101.09.72,5.16,58.83,2.48-62.61,27.06-20.26,26.72,60.77-10.89-66.89,27.91-22.98,28.94,54.81-16.36-56.47,18.4-13.99,25.53,39.49-13.96-44.26,13.28-16.34s20.94,9.7,41.87,21.96c-96,114.89-140.81,177.95-284.16,177.96-143.35,0-169.79-31.91-286.22-164.68l15.83-13.79Z" fill="#fff" stroke-width="0"/>
  <path id="Upper_teeth" data-name="Upper teeth" d="M714.46,508.48l51.57-29.62,3.23-33.19,24.34,19.91,26.55-16.34,3.28-35.22,13.06,28.03,43.57-1.4,7.86-49.39,5.71,48.67,76.94-5.49,7.69-50.95,8.67,55.2,79.85,5.94,23.49-29.84-10.72,33.41,42.38,19.4,22.98-22.47-7.66,25.53,29.11,15.32,23.49-19.4-.51,29.11,48,31.66,12.77-29.62s-173.21-141.24-291.21-140.94c-107.26-3.74-241.26,119.23-255.68,128.68l11.23,22.98Z" fill="#fff" stroke-width="0"/>
  <path id="Upper_Lips" data-name="Upper Lips" d="M1297.19,517.92c-113.02-126.3-200.17-209.09-269.28-212.5-50.72,4.43-58.14,25.09-69.01,28.92-5.21-3.96-28.4-28.92-72.61-28.92-43.23-2.99-160,78.03-269.62,213.86,165.54,10.42,197.62,4.36,219.23-8.85,42.55-29.62,84.09-41.87,123.26-41.87s61.42,7.87,131.38,46.98c16.34,8.85,84.09,10.21,206.64,2.38Z" fill="#e18788" stroke-width="0"/>
  <path id="Lower_Lips" data-name="Lower Lips" d="M1297.19,517.92c-111.15,157.62-109.21,153.79-206.64,225.02-51.4,26.21-89.84,36.55-131.65,36.55-28.66,0-66.22-5.41-124.18-32.77-103.66-51.79-153.7-141.15-218.04-227.45,82.55-3.81,131.74-24.51,220.09,46.2,45.11,42.81,60.87,61.03,122.14,61.03s65.27-13.79,129.27-72.51c57.87-56.17,129.36-38.47,209.02-36.09Z" fill="#d38281" stroke-width="0"/>
</svg>