<?xml version="1.0" encoding="utf-8"?>
<!-- Generator: Adobe Illustrator 27.4.1, SVG Export Plug-In . SVG Version: 6.00 Build 0)  -->
<svg version="1.1" id="Layer_1" xmlns="http://www.w3.org/2000/svg" xmlns:xlink="http://www.w3.org/1999/xlink" x="0px" y="0px"
	 viewBox="0 0 1920 1080" enable-background="new 0 0 1920 1080" xml:space="preserve">
<path id="Inner_Mouth_00000088108892999564482620000011926689047636155034_" fill="#801817" d="M312.4,545.53
	c18.83-3.61,273.79-116.18,640.26-136.02c367.51-19.9,609.96,132.02,672.75,132.97c-57.17,38.61-337.51,173.13-657.83,173.13
	C691.46,715.6,440.74,626.21,312.4,545.53z"/>
<path id="Tongue_00000024715798709706321980000005979926728689308818_" fill="#F2898B" d="M480.25,551.28
	c71.18-51.16,151.79-58.27,369.96-57.62c41.87,0.13,77.79,4.43,122.4,4.43c45.34,0,76.83-7.2,131.38-5.79
	c260.43,6.73,303.4,15.15,366.64,58.98c-52.12,36.8-315.43,153.6-498.02,151.66C790.01,701,503.48,577.92,480.25,551.28z"/>
<path id="Lower_Teeth_00000053516181277218755750000005024620841288401567_" fill="#FFFFFF" d="M527.75,556.23
	c25.7,5.11,49.19,10.04,69.11,17.7c-6.3,15.57-11.37,27.47-13.62,36.09c11.37-14.32,14.1-21.44,26.72-31.66
	c3.21,0.12,65.01,11.73,65.01,11.73l-4.24,48.52l13.83-46.34l78.92,5.08l3.69,55.2l6.64-54.47l83.34,1.45l3.69,63.91l8.11-62.46
	l103.08,2.91l3.85,73.36l7.32-74.81l101.09,0.72l5.16,58.83l3.69-60.28l87.02-2.9l8.11,53.02v-55.2l71.54-7.99l13.28,53.74
	l3.69-55.2l81.87-2.18l5.9,33.05l4.43-33.77l58.27-3.63c0,0,5.91,15,11.6,34.6c-201.11,94.15-320.95,102.1-464.3,102.1
	s-288.51-23.51-466.88-123.11C518.3,576.72,527.75,556.23,527.75,556.23z"/>
<path id="Upper_teeth_00000152953002431512714560000007726191028167957428_" fill="#FFFFFF" d="M482.05,596.51l88.15-10.79
	l17.7-38.74l-1.18,37.53l105.76,9.19l13.77-32.92l4.92,32.93l120.95-5.23l7.86-49.39l3.93,49.39l132.75,4.84l9.5-55.2l8.67,55.2
	h124.42l10.82-55.2l5.42,51.09l118.81-6.13l9.14-25.91l10.81,26.48l87.06-8.68l0.83-23.43l25.61,24.31l85.6,18.7l-10.03-41.94
	c0,0-371.56-80.26-489.56-79.96c-107.26-3.74-461.59,74.06-491.7,83.18V596.51z"/>
<path id="Upper_Lips_00000038392986118675030930000006062108871306221458_" fill="#E18788" d="M1637.69,542.13
	c-35.22,7.22-376.89-150.3-561.61-165.5c-67.57,3.73-84.96,23.05-101.42,26.37c-14.08,2.79-52.48-17.29-95.34-24.68
	c-57.06-27.08-385.65,117.23-597.35,163.99c41.4-3.92,193.38,33.66,289.4,11.37c182.13-42.68,374.08-27.3,403.57-27.44
	s279.29-2.39,391.87,24C1614.06,608.18,1601.6,548.91,1637.69,542.13z"/>
<path id="Lower_Lips_00000053519144909352810900000006999592707110832769_" fill="#D38181" d="M1631.71,543.24
	c-178.39,115.81-370.32,164.42-485.72,182.26c-60,2.8-131.58-0.84-173.38-0.84c-28.66,0-80.7,3.23-122.4,3.84
	C681.53,727.6,451.13,641.86,285.91,541c48.93-1.18,74.24,1.37,340.12,34.82c120.73,10.63,231.81,21.28,348.94,21.11
	c165.02-0.24,215.58-10.95,343.74-22.11C1509.53,544.86,1531.29,543.24,1631.71,543.24z"/>
</svg>
