<?xml version="1.0" encoding="utf-8"?>
<!-- Generator: Adobe Illustrator 27.4.1, SVG Export Plug-In . SVG Version: 6.00 Build 0)  -->
<svg version="1.1" id="Layer_1" xmlns="http://www.w3.org/2000/svg" xmlns:xlink="http://www.w3.org/1999/xlink" x="0px" y="0px"
	 viewBox="0 0 1920 1080" enable-background="new 0 0 1920 1080" xml:space="preserve">
<path id="Inner_Mouth_00000021116045465521910300000014571448886447425673_" fill="#801817" d="M267.43,418.93
	c113.82-21.51,321.16-177.85,689.21-177.85s620.11,168.69,689.76,178.39c-38.35,36.01-264.43,430.93-688.11,424.92
	C534.61,838.38,290.02,438.61,267.43,418.93z"/>
<path id="Tongue_00000147935245719563958820000013682917701755046035_" fill="#F2898B" d="M500.72,588.88
	c71.18-51.16,118-197.3,334.89-215.78c41.72-3.55,87.43,8.36,132.04,8.36c45.34,0,80.73-14.28,131.79-8.37
	c259.72,30.04,271.03,184.4,334.27,228.23c-52.12,36.8-276.11,228.66-458.7,226.72C792.41,826.11,555.87,658.32,500.72,588.88z"/>
<path id="Lower_Teeth_00000020387234053061414240000017899009532969856187_" fill="#FFFFFF" d="M518.88,666.02
	c25.7,5.11,49.19,10.04,69.11,17.7c-6.3,15.57-11.37,27.47-13.62,36.09c11.37-14.32,14.1-21.44,26.72-31.66
	c3.21,0.12,65.01,11.73,65.01,11.73l-4.24,48.52l13.83-79.34l78.92,4.08l3.69,89.2l6.64-88.47l83.34,1.45l3.69,97.91l8.11-96.46
	l103.08,2.91l3.85,107.36l7.32-108.81l101.09,0.72l5.16,92.83l3.69-94.28l87.02-2.9l8.11,87.02v-89.2l71.54-7.99l13.28,87.74
	l3.69-55.2l81.87-2.18l5.9,33.05l4.43-33.77l58.27-3.63c0,0-25.78,9.91-20.08,29.51c-201.11,94.15-287.53,144.79-430.89,144.79
	s-279.93-67.66-458.31-167.26C519.74,679.96,518.88,666.02,518.88,666.02z"/>
<path id="Upper_teeth_00000133508727910437308600000000457564194237632129_" fill="#FFFFFF" d="M475.02,372.07l88.15-22.36
	l17.7-38.74l-1.36,41.72l105.93-32l13.77-32.92l4.92,32.93l120.95-5.23l7.86-49.39l3.93,49.39l132.75,4.84l9.5-55.2l8.67,55.2
	h124.42l10.14-39.68l6.1,35.57l118.78,10.13l9.68-20.17l8.17,22.47l97.02,25.37l8.49-22.14l16.93,30.58l85.79,21.11l-10.03-41.94
	c0,0-378.56-102.72-496.56-102.42c-107.26-3.74-468.26,85.62-491.7,92.2V372.07z"/>
<path id="Upper_Lips_00000029034669370517211540000015686609350031046042_" fill="#E18788" d="M1658.41,419.47
	c-188.09-85.28-383.51-232-598.32-252.51c-64,1.36-89.15,32.72-97.17,34.61c-5.21-3.96-35.09-33.89-96.87-33.55
	C652.6,186.74,502.62,321.1,261.26,418.47c39.04,11.24,262.91-46.7,355.09-54.11c188.43-11.74,317.08-11.47,346.57-11.62
	s246.33,1.22,347.89,10.6C1568.5,387.13,1599.72,422.02,1658.41,419.47z"/>
<path id="Lower_Lips_00000044885394344406688880000017003766350307472798_" fill="#D38281" d="M1657.41,418.47
	c-91.57,181.66-300.24,435.33-561.57,480.14c-58.38,12.09-91.11,12.36-132.91,12.36c-28.66,0-48.5,2.24-120.87-12.89
	c-251.23-71.23-406.88-233.17-580.79-478.61c41.46-3.89,129.91,98.33,356.62,218.46c108.62,44.54,206.15,69.32,346.57,69.32
	c157.53,0,243.72-12.45,348.66-59.94C1506.28,537.35,1620.05,413.35,1657.41,418.47z"/>
</svg>
