<?xml version="1.0" encoding="utf-8"?>
<!-- Generator: Adobe Illustrator 27.4.1, SVG Export Plug-In . SVG Version: 6.00 Build 0)  -->
<svg version="1.1" id="Layer_1" xmlns="http://www.w3.org/2000/svg" xmlns:xlink="http://www.w3.org/1999/xlink" x="0px" y="0px"
	 viewBox="0 0 1920 1080" enable-background="new 0 0 1920 1080" xml:space="preserve">
<path id="Inner_Mouth_00000054948264723659895000000010124646885388404661_" fill="#801817" d="M292.31,461.33
	c30.64-7.83,301.17-147.55,669.23-147.55s614.03,142.52,676.82,143.47c-57.17,38.61-354.35,330.92-674.67,330.92
	C687.58,788.16,420.65,542.01,292.31,461.33z"/>
<path id="Tongue_00000111177785134236895470000015730434228578514824_" fill="#F2898B" d="M495.4,583.37
	c71.18-51.16,141.52-116.47,345.88-161.9c42.77-9.51,77.79-11.57,122.4-11.57c45.34,0,77.14-4.19,131.38,10.21
	c258.35,68.62,295.88,157.64,331.49,181.89c-52.12,36.8-256.39,196.15-438.98,194.21C804.98,794.27,518.63,610,495.4,583.37z"/>
<path id="Lower_Teeth_00000061445756211093890780000005720473600256027536_" fill="#FFFFFF" d="M519.65,539.08
	c25.7,5.11,49.19,10.04,69.11,17.7c-6.3,15.57-11.37,27.47-13.62,36.09c11.37-14.32,14.1-21.44,26.72-31.66
	c3.21,0.12,65.01,11.73,65.01,11.73l-4.24,48.52l13.83-46.34l78.92,5.08l3.69,55.2l6.64-54.47l83.34,1.45l3.69,63.91l8.11-62.46
	l103.08,2.91l3.85,73.36l7.32-74.81l101.09,0.72l5.16,58.83l3.69-60.28l87.02-2.9l8.11,53.02v-55.2l71.54-7.99l13.28,53.74
	l3.69-55.2l81.87-2.18l5.9,33.05l4.43-33.77l58.27-3.63c0,0,5.91,15,11.6,34.6c-201.11,94.15-319.22,139.7-462.57,139.7
	S677.94,676.69,499.56,577.1C510.2,559.57,519.65,539.08,519.65,539.08z"/>
<path id="Upper_teeth_00000019661559541149625140000004363861513862981051_" fill="#FFFFFF" d="M471.98,430.66l88.41-11.35
	l17.44-49.74l-1.45,44.68l105.55,10.69l14.25-78.56l0.56,80.09l120.51,10.94l12.66-112.72l0.1,112.72l129.19,4.74l16.89-118.43
	l-5.14,119.09h131.74l7.15-94.98l3.57,89.58l121.02-8.39l13.79-53.11l-2.55,50.04l103.15-9.7l9.7-20.94l14.04,12.77l78.89,8.43
	l8.78-16.3c0,0-378.56-102.72-496.56-102.42c-107.26-3.74-468.26,85.62-491.7,92.2V430.66z"/>
<path id="Upper_Lips_00000093135884916942839840000003973675911179241387_" fill="#E18788" d="M1654.03,455.72
	c-209.36-73.53-436.76-224.45-594.74-221.15c-49.72,8.91-81.92,42.4-95.6,44.19c-12.62-2.55-41.39-37.02-96.87-44.15
	c-124.3-1.6-323.28,99.64-601.18,226.13c54.13,6.47,223.79-4.31,351.48-26.89c186.49-21.05,317.08-18.71,346.57-18.85
	s241.48,0.12,346.87,17.23C1472.14,458.47,1598.93,458.95,1654.03,455.72z"/>
<path id="Lower_Lips_00000066483234821438814190000008644068884425347988_" fill="#D38181" d="M1654.03,455.72
	c-121.53,134.81-298.57,345.7-562.57,382.47c-60.77,8.94-87.02,10.3-128.83,10.3c-28.66,0-85.89-2.24-122.4-10.41
	c-241.87-51.4-359.72-172.25-569.6-376.34c24.34-3.23,65.38-16.19,345.43,134.87c114.89,43.75,229.46,54.67,346.57,56.66
	c166.31,2.82,225.83-17.9,346.11-61.81C1461.16,544.99,1514,466.9,1654.03,455.72z"/>
</svg>
