<?xml version="1.0" encoding="utf-8"?>
<!-- Generator: Adobe Illustrator 27.4.1, SVG Export Plug-In . SVG Version: 6.00 Build 0)  -->
<svg version="1.1" id="Layer_2" xmlns="http://www.w3.org/2000/svg" xmlns:xlink="http://www.w3.org/1999/xlink" x="0px" y="0px"
	 viewBox="0 0 1920 1080" enable-background="new 0 0 1920 1080" xml:space="preserve">
<path id="Inner_Mouth_00000056396109343189687640000011207517320983446452_" fill="#801817" d="M300.92,447.48
	c30.64-7.83,292.56-137.07,660.61-137.07s597.91,131.76,660.7,132.71c-57.17,38.61-338.23,341.67-658.55,341.67
	C687.58,784.79,429.26,528.16,300.92,447.48z"/>
<path id="Tongue_00000107564154268381303080000008691888932867093135_" fill="#F2898B" d="M499.36,504.91
	c3.38-89.28,141.36-41.05,342.34-85.73c42.77-9.51,77.79-11.57,122.4-11.57c45.34,0,77.14-4.19,131.38,10.21
	c244.54,64.95,319.04,41.43,325.72,99.85c-12.58,83.62-279.23,81.14-456.21,79.26C790.19,595.07,504.05,585.16,499.36,504.91z"/>
<path id="Lower_Teeth_00000107548868563001600300000005478630994825301688_" fill="#FFFFFF" d="M519.65,535.71
	c25.7,5.11,49.19,10.04,69.11,17.7c-6.3,15.57-11.37,27.47-13.62,36.09c11.37-14.32,14.1-21.44,26.72-31.66
	c3.21,0.12,65.01,11.73,65.01,11.73l-4.24,48.52l13.83-46.34l78.92,5.08l3.69,55.2l6.64-54.47l83.34,1.45l3.69,63.91l8.11-62.46
	l103.08,2.91l3.85,73.36l7.32-74.81l101.09,0.72l5.16,58.83l3.69-60.28l87.02-2.9l8.11,53.02v-55.2l71.54-7.99l13.28,53.74
	l3.69-55.2l81.87-2.18l5.9,33.05l4.43-33.77l58.27-3.63c0,0,5.91,15,11.6,34.6c-201.11,94.15-319.22,139.7-462.57,139.7
	s-290.24-61.11-468.62-160.71C510.2,556.2,519.65,535.71,519.65,535.71z"/>
<path id="Upper_teeth_00000098937303642091089770000002232980475897130124_" fill="#FFFFFF" d="M471.98,451.29l88.41,3.65
	l17.44-46.74l-1.45,47.68l105.55,9.69L696.18,385l0.56,80.09l120.51,10.94l12.66-112.72l0.1,112.72l129.19,4.74l16.89-118.43
	l-5.14,119.09h131.74l7.15-94.98l3.57,89.58l121.02-8.39l13.79-53.11l-2.55,50.04l103.15-9.7l9.7-20.94l10.04,17.77l82.89-4.57
	l8.78-8.3c0,0-378.56-102.72-496.56-102.42c-107.26-3.74-468.26,67.62-491.7,74.2V451.29z"/>
<path id="Upper_Lips_00000069360605619251904510000014535047815276663972_" fill="#E18788" d="M1645.03,435.34
	c-208.69-65.53-416.4-192.95-585.74-212.15c-57.57,3.49-81.92,34.4-95.6,36.19c-12.62-2.55-42.25-36.19-96.87-36.15
	c-124.3-1.6-313.67,108.17-592.18,215.13c49.86,55.37,214.79,9.69,342.48-12.89c186.49-21.05,317.08-19.71,346.57-19.85
	s241.48,4.12,346.87,21.23C1472.14,453.09,1596.92,472.79,1645.03,435.34z"/>
<path id="Lower_Lips_00000099634508172137185740000008911752529098072468_" fill="#D38181" d="M1643.03,434.34
	c-115.06,136.19-287.57,376.7-551.57,413.47c-60.77,8.94-87.02,10.3-128.83,10.3c-28.66,0-85.89-2.24-122.4-10.41
	c-241.87-51.4-357.78-196-560.6-408.34c24.34-3.23,83.26,3.75,336.43,174.87c111.63,49.68,229.46,54.67,346.57,56.66
	c166.31,2.82,222.37-7.85,346.11-58.81C1464.27,550.59,1503,445.53,1643.03,434.34z"/>
</svg>
