<?xml version="1.0" encoding="utf-8"?>
<!-- Generator: Adobe Illustrator 27.4.1, SVG Export Plug-In . SVG Version: 6.00 Build 0)  -->
<svg version="1.1" id="Layer_1" xmlns="http://www.w3.org/2000/svg" xmlns:xlink="http://www.w3.org/1999/xlink" x="0px" y="0px"
	 viewBox="0 0 1920 1080" enable-background="new 0 0 1920 1080" xml:space="preserve">
<path id="Inner_Mouth_00000003823225237922467080000012079144949424798112_" fill="#801817" d="M291.88,438.41
	c30.64-7.83,303.15-135.08,671.2-135.08s619.44,125.41,678.5,133.98c-57.17,38.61-356.03,340.41-676.35,340.41
	C689.12,777.71,371.2,491.18,291.88,438.41z"/>
<path id="Tongue_00000104690756546823187180000016972903251637145791_" display="none" fill="#F2898B" d="M495.43,504.07
	c3.33-95.33,123.33-45.33,342.95-46.03c41.87-0.13,77.79-3.57,122.4-3.57c45.34,0,74.65,5.27,131.38,5.21
	c283.9-0.28,327.48-10.78,329.09,59.62c-4,61.61-275.23,76.37-457.82,74.43C780.83,591.8,496.66,557.68,495.43,504.07z"/>
<path id="Tongue_00000116229065440928097530000017523895848855638682_" fill="#F2898B" d="M496.76,489.4
	c1.33-45.33,324-58.82,361.69-75.23c30.16-13.13,62.54-9.74,89.05-9.74c25.54,0,59.69-7.64,101.39,8.07
	c47.35,17.84,362.53,48.9,366.53,94.23c1.33,55.33-282.3,89.94-464.89,88C767.94,592.8,484.76,542.74,496.76,489.4z"/>
<path id="Lower_Teeth_00000070090094612406489480000003384689588989804960_" fill="#FFFFFF" d="M519.69,537.35
	c25.7,5.11,49.19,10.04,69.11,17.7c-6.3,15.57-10.45,25.51-12.7,34.13c11.37-14.32,13.18-19.49,25.81-29.7
	c3.21,0.12,65.01,11.73,65.01,11.73l-1.48,42.19l11.07-40.01l78.92,5.08l5.34,48.27l4.99-47.54l83.34,1.45l4.34,57.42l7.46-55.97
	l103.08,2.91l2.79,65.73l8.38-67.18l101.09,0.72l3.86,50.46l4.99-51.91l87.02-2.9l8.66,45.47l-0.55-47.65l71.54-4.99l13.68,46.64
	l3.29-49.1l81.87-4.18l6.84,23.28l3.49-24l55.84-3.33c0,0,5.39-2.99,11.09,16.61c-201.11,94.15-319.22,139.7-462.57,139.7
	s-290.24-61.11-468.62-160.71C507.3,540.15,519.69,537.35,519.69,537.35z"/>
<path id="Upper_teeth_00000132060247239429710260000013278358211170139044_" fill="#FFFFFF" d="M462.54,448.96l97.9,7.62
	l14.49-88.43l1.49,89.36l107.45,6.56l9.4-119.12l3.5,121.78l120.51,10.94l13.25-151.38l-0.49,151.38l129.19,4.74l13.94-160.12
	l-2.2,160.78h131.74l4.2-136.67l6.52,131.27l121.02-8.39l10.84-94.79l0.39,91.73l103.15-9.7l6.76-62.62l8.25,62.18l79.11-8
	l14.35-49.28c0,0-378.56-102.72-496.56-102.42c-107.26-3.74-468.26,85.62-491.7,92.2L462.54,448.96z"/>
<path id="Upper_Lips_00000000912810296330659680000000795543860799892096_" fill="#E18788" d="M1644.13,437.3
	c-151.83-46.85-439.15-207.02-586.46-213.01c-42.14-0.14-83.91,28.23-94.96,34.5c-11.06-5.87-46.42-36.68-108.37-33.61
	c-82.38,1.02-418.03,151.35-578.82,214.73c113.23,45.51,360.35-14.49,446.39-23.73c57.07-4.54,182.45-13.81,248.17-13.81
	c29.5,0,142.8,8.47,212.36,10.82C1295.81,417.01,1514.99,489.85,1644.13,437.3z"/>
<path id="Lower_Lips_00000165222076506239517900000005828274401938263998_" fill="#D2837E" d="M1644.13,437.3
	C1522.6,572.11,1352.56,812,1088.56,848.76c-60.77,8.94-87.02,9.3-128.83,9.3c-28.66,0-85.89-3.24-122.4-11.41
	C594.1,804.51,485.6,644.4,275.73,440.32c24.34-3.23,73.92,5.08,337.43,171.87c108.94,52.77,229.52,59.45,346.57,63.66
	c162.45,5.85,219.49-13.12,346.11-62.81C1456.32,556.51,1499.62,437.3,1644.13,437.3z"/>
</svg>
