<?xml version="1.0" encoding="utf-8"?>
<!-- Generator: Adobe Illustrator 27.4.1, SVG Export Plug-In . SVG Version: 6.00 Build 0)  -->
<svg version="1.1" id="Layer_1" xmlns="http://www.w3.org/2000/svg" xmlns:xlink="http://www.w3.org/1999/xlink" x="0px" y="0px"
	 viewBox="0 0 1920 1080" enable-background="new 0 0 1920 1080" xml:space="preserve">
<path id="Inner_Mouth_00000108270665034708606580000008813723133510555069_" fill="#801817" d="M301.07,533.01
	c62.3-14.3,380.23-137.24,669.55-137.24c368.05,0,578.9,120.24,638.72,139.29c-51.44,41.85-324.46,168.86-644.77,168.86
	C688.46,703.91,417.09,625.14,301.07,533.01z"/>
<path id="Tongue_00000139973906750588272210000004069558931897489817_" fill="#F2898B" d="M476.27,597.47
	c71.18-51.16,151.79-2.27,369.96-1.62c41.87,0.13,77.79,4.43,122.4,4.43c45.34,0,76.83-7.2,131.38-5.79
	c260.43,6.73,303.4-40.85,366.64,2.98c-52.12,36.8-315.43,99.6-498.02,97.66C786.04,693.19,499.51,624.11,476.27,597.47z"/>
<path id="Lower_Teeth_00000132808032203670059590000011423285652778408083_" fill="#FFFFFF" d="M523.78,591.42
	c25.7,5.11,49.19,10.04,69.11,17.7c-6.3,15.57-11.37,27.47-13.62,36.09c11.37-14.32,14.1-21.44,26.72-31.66
	c3.21,0.12,65.01,11.73,65.01,11.73l-4.24,48.52l13.83-46.34l78.92,5.08l3.69,55.2l6.64-54.47l83.34,1.45l3.69,63.91l8.11-62.46
	l103.08,2.91l3.85,73.36l7.32-74.81l101.09,0.72l5.16,58.83l3.69-60.28l87.02-2.9l8.11,53.02v-55.2l71.54-7.99l13.28,53.74
	l3.69-55.2l81.87-2.18l5.9,33.05l4.43-33.77l58.27-3.63c0,0,5.91-15,11.6,4.6c-201.11,94.15-319.22,54.7-462.57,54.7
	s-290.24,53.89-468.62-45.71C514.33,611.91,523.78,591.42,523.78,591.42z"/>
<path id="Upper_teeth_00000075149297554651747600000006224621473478154112_" fill="#FFFFFF" d="M478.07,556.7l94.15-1.79l11.7-47.74
	l-1.18,49.53l105.76,6.19l13.77-78.92l4.92,84.93l120.95,5.77L836,462.28l3.93,112.39l127.43,5.78l3.82-119.14l8.01,119.38
	l136.08-2.18l13.82-103.2l2.42,102.09l122.81-10.13l5.14-85.91l5.81,84.48l99.06-11.68l0.83-41.43l14.61,36.31l96.6,6.7
	l-10.03-41.94c0,0-378.56-118.26-496.56-117.96c-107.26-3.74-461.59,111.06-491.7,120.18V556.7z"/>
<path id="Upper_Lips_00000166660580200658041710000000653119501027359166_" fill="#E18788" d="M1634.72,530.32
	c-136.08-27.63-383.63-154.18-562.61-167.5c-66.36,8.43-85.92,22.98-101.42,26.37c-11.6-2.5-53.38-14.5-95.34-25.68
	c-59.82-12.37-374.93,103.18-590.41,165.68c36.81,12.62,235.48,13.95,341.45,1.68c186.03-25.73,317.08-18.3,346.57-18.44
	s244.12,0.71,346.87,15C1573.01,562.63,1609.09,537.81,1634.72,530.32z"/>
<path id="Lower_Lips_00000067923964935688360270000017597152102944616109_" fill="#E18788" d="M1624.87,533.81
	c-178.39,115.81-406.81,162.05-522.21,179.89c-60,2.8-89.58-3.84-131.38-3.84c-28.66,0-80.7,3.23-122.4,3.84
	c-167.49-10.48-415.93-72.65-563.93-184.51c48.93-1.18,74.59-2.05,339.76,34.82c123.28,10.69,231.81,19.28,348.94,19.11
	c165.02-0.24,217.01-7.09,343.74-20.11C1520.42,530.25,1524.44,533.81,1624.87,533.81z"/>
</svg>
