<?xml version="1.0" encoding="utf-8"?>
<!-- Generator: Adobe Illustrator 27.4.1, SVG Export Plug-In . SVG Version: 6.00 Build 0)  -->
<svg version="1.1" id="Layer_1" xmlns="http://www.w3.org/2000/svg" xmlns:xlink="http://www.w3.org/1999/xlink" x="0px" y="0px"
	 viewBox="0 0 1920 1080" enable-background="new 0 0 1920 1080" xml:space="preserve">
<path id="Inner_Mouth_00000100363271004324772090000004255618183748318621_" fill="#801817" d="M268.92,532.3
	c18.83-3.61,304.2-129.02,672.26-129.02s609.96,132.02,672.75,132.97c-57.17,38.61-332.47,201.36-652.79,201.36
	C685.03,737.61,397.26,612.98,268.92,532.3z"/>
<path id="Tongue_00000145763741060335855690000008403712620578271387_" fill="#F2898B" d="M468.77,621.05
	c71.18-51.16,151.79-58.27,369.96-57.62c41.87,0.13,77.79,4.43,122.4,4.43c45.34,0,76.83-7.2,131.38-5.79
	c260.43,6.73,303.4,15.15,366.64,58.98c-52.12,36.8-316.16,135.02-498.75,133.08C777.81,752.19,492.01,647.69,468.77,621.05z"/>
<path id="Lower_Teeth_00000080196217834510409340000003165620978532557215_" fill="#FFFFFF" d="M516.28,559
	c25.7,5.11,49.19,10.04,69.11,17.7c-6.3,15.57-11.37,27.47-13.62,36.09c11.37-14.32,14.1-21.44,26.72-31.66
	c3.21,0.12,65.01,11.73,65.01,11.73l-4.24,48.52l13.83-46.34l78.92,5.08l3.69,55.2l6.64-54.47l83.34,1.45l3.69,63.91l8.11-62.46
	l103.08,2.91l3.85,73.36l7.32-74.81l101.09,0.72l5.16,58.83l3.69-60.28l87.02-2.9l8.11,53.02v-55.2l71.54-7.99l13.28,53.74
	l3.69-55.2l81.87-2.18l5.9,33.05l4.43-33.77l58.27-3.63c0,0,5.91,15,11.6,34.6c-201.11,94.15-319.22,139.7-462.57,139.7
	c-143.35,0-290.24-61.11-468.62-160.71C506.83,579.49,516.28,559,516.28,559z"/>
<path id="Upper_teeth_00000042009409559840635910000011900972081490088607_" fill="#FFFFFF" d="M470.57,524.28l88.15-10.79
	l17.7-38.74l-1.18,37.53L681,484.47l13.77-32.92l4.92,32.93l120.95-5.23l7.86-49.39l3.93,49.39l132.75,4.84l9.5-55.2l8.67,55.2
	h124.42l10.82-55.2l5.42,51.09l118.81-6.13l9.14-25.91l10.81,26.48l94.06,29.32l0.83-23.43l25.61,24.31l85.6,18.7l-10.03-41.94
	c0,0-378.56-118.26-496.56-117.96c-107.26-3.74-461.59,111.06-491.7,120.18V524.28z"/>
<path id="Upper_Lips_00000170262010460105072690000014994362067698701458_" fill="#E18788" d="M1654.22,533.9
	c-31.58-11.55-422.4-189.95-599.61-217.5c-66.93-4.53-81.47,31.5-95.42,37.37c-11.06-5.87-47.13-37.68-91.34-37.68
	c-62.79-4.43-398.37,130.14-602.35,216.99c41.4-3.92,257.82-7.29,353.4-6.63c189.38,2.72,317.08,23.7,346.57,23.56
	s243.59-21.87,346.87-21C1567.93,531.16,1631.54,533.9,1654.22,533.9z"/>
<path id="Lower_Lips_00000034053731076858929910000009878006145204221320_" fill="#D38181" d="M1654.22,533.9
	c-178.39,115.81-446.3,211.54-561.7,229.38c-60,2.8-89.58-3.84-131.38-3.84c-28.66,0-77.53,8.66-122.4,3.84
	C675.9,735.8,413.43,644.63,265.44,532.77c48.93-1.18,81.46-11.39,349.12-12.18c121.02-2.87,231.81,22.28,348.94,22.11
	c165.02-0.24,217.36-22.11,343.74-22.11C1523.5,520.59,1553.8,533.9,1654.22,533.9z"/>
</svg>
