<?xml version="1.0" encoding="utf-8"?>
<!-- Generator: Adobe Illustrator 27.4.1, SVG Export Plug-In . SVG Version: 6.00 Build 0)  -->
<svg version="1.1" id="Layer_1" xmlns="http://www.w3.org/2000/svg" xmlns:xlink="http://www.w3.org/1999/xlink" x="0px" y="0px"
	 viewBox="0 0 1920 1080" enable-background="new 0 0 1920 1080" xml:space="preserve">
<path id="Inner_Mouth_00000013165585784159842610000008749483966623666318_" fill="#801817" d="M265.66,428.19
	c15.9-8.39,328.87-140.35,696.92-140.35s629.23,137.09,692.02,138.04c-57.17,38.61-369.55,336.34-689.87,336.34
	C688.63,762.22,394,508.87,265.66,428.19z"/>
<path id="Tongue_00000054959496190582164910000015277549717993029031_" fill="#F2898B" d="M514.45,586.17
	c60.16-53.25,112.52-186.78,327.88-202.9c41.76-3.13,77.79,4.49,122.4,4.43c52.35-0.08,76.33-14.9,131.38-5.79
	c263.94,43.67,266.56,173.27,325.49,213.89c-52.12,36.8-250.39,186.15-432.98,184.21C806.03,778.07,537.68,612.81,514.45,586.17z"/>
<path id="Lower_Teeth_00000055667785635320787830000007637563173769391793_" fill="#FFFFFF" d="M520.7,640.14
	c25.7,5.11,49.19,10.04,69.11,17.7c-6.3,15.57-11.37,27.47-13.62,36.09c11.37-14.32,14.1-21.44,26.72-31.66
	c3.21,0.12,65.01,11.73,65.01,11.73l-4.24,48.52l13.83-46.34l78.92,5.08l3.69,55.2l6.64-54.47l83.34,1.45l3.69,63.91l8.11-62.46
	l103.08,2.91l3.85,73.36l7.32-74.81l101.09,0.72l5.16,58.83l3.69-60.28l87.02-2.9l8.11,53.02v-55.2l71.54-7.99l13.28,53.74
	l3.69-55.2l81.87-2.18l5.9,33.05l4.43-33.77l58.27-3.63c0,0,5.91,15,11.6,34.6c-201.11,94.15-319.22,139.7-462.57,139.7
	s-290.24-61.11-468.62-160.71C511.25,660.63,520.7,640.14,520.7,640.14z"/>
<path id="Upper_teeth_00000058547680223194979540000007793940463786052754_" fill="#FFFFFF" d="M473.03,372.72l88.15-22.36
	l17.7-38.74l-1.36,41.72l105.93-32l13.77-32.92l4.92,32.93l120.95-5.23l7.86-49.39l3.93,49.39l132.75,4.84l9.5-55.2l8.67,55.2
	h124.42l10.82-55.2l5.42,51.09l118.81-6.13l9.14-25.91l9.22,22.59l96.48,47.25v-37.47l25.42,45.91l85.79,21.11l-10.03-41.94
	c0,0-378.56-102.72-496.56-102.42c-107.26-3.74-468.26,85.62-491.7,92.2V372.72z"/>
<path id="Upper_Lips_00000082352851964877557830000011975414532973102508_" fill="#E18788" d="M1662.18,427.44
	c-295.57-141.55-484.87-268-598.74-251.4c-61.02,5.87-85.02,31.91-98.7,33.7c-12.62-2.55-52.66-32.68-96.87-32.68
	c-180.6,1.7-335.15,136.63-610.38,250.09c54.13,6.47,268.51-49,360.68-56.41c188.43-11.74,317.08-8.54,346.57-8.68
	c29.5-0.14,244.06-3.23,346.87,6.64C1570.12,393.52,1607.08,430.67,1662.18,427.44z"/>
<path id="Lower_Lips_00000074415613633380933810000006363772429489251248_" fill="#D38181" d="M1659.84,426.88
	c-130.91,235.64-320.73,433.38-564.02,481.34c-58.38,12.09-90.43,10.55-132.23,10.55c-28.66,0-79.9-1.74-115.77-11.62
	c-252.26-60.77-415.91-245.64-588.71-479.97c39.68-9.12,77.85,66.93,357.9,217.99c111.1,45.96,230.59,69.83,347.72,69.83
	c165.62,0,227.96-9.82,344.97-59.87C1513.7,554.14,1569.52,446.52,1659.84,426.88z"/>
</svg>
