<?xml version="1.0" encoding="utf-8"?>
<!-- Generator: Adobe Illustrator 27.4.1, SVG Export Plug-In . SVG Version: 6.00 Build 0)  -->
<svg version="1.1" id="Layer_1" xmlns="http://www.w3.org/2000/svg" xmlns:xlink="http://www.w3.org/1999/xlink" x="0px" y="0px"
	 viewBox="0 0 1920 1080" enable-background="new 0 0 1920 1080" xml:space="preserve">
<path id="Inner_Mouth_00000121257766811001291890000008998795466343307967_" fill="#801817" d="M307.06,462.89
	C337.7,455.06,596.88,334,964.93,334s617.11,120.69,679.89,121.63c-57.17,38.61-359.57,320.01-679.89,320.01
	C688.82,775.65,435.4,543.57,307.06,462.89z"/>
<path id="Tongue_00000003817984128791147520000011717272086136394164_" fill="#F2898B" d="M539.95,558.6
	c67.07-65.45,217.42-129.6,335.49-138.24c36.77-2.69,56.62,0,91.91,0c35.87,0,66.16,1.39,110.81,4.34
	c131.23,8.68,267.06,92.94,338.81,154.98c-41.24,29.12-302.08,142.47-446.55,140.94C825.94,719.08,558.33,579.68,539.95,558.6z"/>
<path id="Lower_Teeth_00000163778242118610682590000001792715548797711014_" fill="#FFFFFF" d="M515.69,540.67
	c25.7,5.11,49.19,10.04,69.11,17.7c-6.3,15.57-11.37,17.47-13.62,26.09c11.37-14.32,14.1-11.44,26.72-21.66
	c3.21,0.12,65.01,11.73,65.01,11.73l-4.24,38.52l13.83-36.34l78.92,5.08l3.69,45.2l6.64-44.47l83.34,1.45l3.69,53.91l8.11-52.46
	l103.08,2.91l3.85,63.36l7.32-64.81l101.09,0.72l5.16,48.83l3.69-50.28l87.02-2.9l8.11,43.02v-45.2l77.84-6.89l6.98,42.64l1.7-43.66
	l83.86-3.72l5.9,23.05l4.43-23.77l58.27-13.63c0,0,5.91,15,11.6,34.6c-201.11,94.15-319.22,139.7-462.57,139.7
	S673.98,668.28,495.6,568.68C506.24,551.16,515.69,540.67,515.69,540.67z"/>
<path id="Upper_teeth_00000086655194419544269490000011791237803317316535_" fill="#FFFFFF" d="M469.5,449.81l88.41-11.35
	l17.44-49.74l-1.45,44.68l105.55-12.31l14.25-55.56l0.56,57.09l120.51,10.94l12.66-89.72l0.1,89.72l129.19,4.74l16.89-95.43
	l-5.14,96.09h131.74l7.15-71.98l3.91,70.78l121.02-8.39l13.45-34.3l-1.35,24.16l102.97,19.71l8.69-24.47l14.04,12.77l78.89,8.43
	l8.78-16.3c0,0-378.56-102.72-496.56-102.42c-107.26-3.74-468.26,85.62-491.7,92.2V449.81z"/>
<path id="Upper_Lips_00000118393135004257653460000006626647801274616453_" fill="#E18788" d="M1648.98,455.41
	c-261.15-92.22-389.82-212.89-586.31-222.44c-41.28,2.72-91.46,43.36-99.48,45.24c-5.21-3.96-55.09-42.78-98.91-42.78
	c-181.11,6.43-321.78,108.43-597.6,222.77c178.7,15.44,329.15-19.67,359.06-24.01c150.09-25,309.06-20.94,338.55-21.09
	c29.5-0.14,235.54,3.42,343.6,19.44C1358.86,440.1,1498.5,475.19,1648.98,455.41z"/>
<path id="Lower_Lips_00000088820118902244681190000001816089182093641389_" fill="#D38281" d="M1652.98,454.41
	c-170.82,154.78-259.82,330.78-555.89,382c-60.77,8.94-88.41,10.79-130.21,10.79c-28.66,0-72.89-0.78-123.57-8.77
	C569.83,779.86,523.98,673.18,269.68,458.2c113.37-2.12,229.04,77.21,349.45,137.6c76.6,41.84,291.06,57.77,346.57,57.77
	c75.72,0,198.46-3.05,346.11-66.4C1402.83,549.86,1480.16,480.52,1652.98,454.41z"/>
</svg>
